<?xml version="1.0" encoding="utf-8"?>
<!-- Generator: Adobe Illustrator 16.0.0, SVG Export Plug-In . SVG Version: 6.00 Build 0)  -->
<!DOCTYPE svg PUBLIC "-//W3C//DTD SVG 1.1//EN" "http://www.w3.org/Graphics/SVG/1.1/DTD/svg11.dtd">
<svg version="1.1" id="Layer_1" xmlns="http://www.w3.org/2000/svg" xmlns:xlink="http://www.w3.org/1999/xlink" x="0px" y="0px"
	 width="170.996px" height="170.664px" viewBox="0 0 170.996 170.664" enable-background="new 0 0 170.996 170.664"
	 xml:space="preserve">
<circle fill="#CD1488" cx="85.652" cy="85.152" r="82.5"/>
<g>
	<path fill="#FFFFFF" d="M43.21,75.058v3.589c-2.814-1.583-5.566-2.376-8.254-2.376c-1.869,0-3.521,0.428-4.956,1.282
		s-2.544,1.979-3.324,3.375c-0.78,1.396-1.17,2.892-1.17,4.486c0,1.584,0.378,3.065,1.136,4.443
		c0.758,1.379,1.849,2.481,3.273,3.307c1.424,0.826,3.093,1.239,5.007,1.239c3.008,0,5.856-0.889,8.545-2.666v3.76
		c-2.621,1.391-5.515,2.085-8.682,2.085c-2.78,0-5.139-0.606-7.075-1.82c-1.937-1.213-3.384-2.751-4.341-4.614
		c-0.957-1.862-1.436-3.785-1.436-5.768c0-2.29,0.578-4.375,1.734-6.255s2.726-3.355,4.708-4.427
		c1.982-1.07,4.141-1.605,6.477-1.605C37.53,73.093,40.316,73.749,43.21,75.058z"/>
	<path fill="#FFFFFF" d="M57.326,86.32v7.913c0,0.49,0.199,0.735,0.599,0.735c0.342,0,0.889-0.279,1.641-0.838v2.238
		c-1.22,0.81-2.308,1.214-3.265,1.214c-1.162,0-1.868-0.535-2.119-1.606c-1.355,1.071-2.768,1.606-4.238,1.606
		c-1.104,0-2.024-0.379-2.76-1.137c-0.734-0.757-1.102-1.66-1.102-2.708c0-1.025,0.327-1.889,0.982-2.59
		c0.654-0.7,1.449-1.256,2.384-1.666c0.934-0.41,2.159-0.86,3.675-1.35l1.094-0.342v-0.872c0-0.957-0.234-1.651-0.701-2.085
		c-0.468-0.433-1.18-0.649-2.137-0.649c-0.889,0-1.76,0.217-2.614,0.649c-0.854,0.434-1.641,1.083-2.358,1.948V83.38
		c1.207-1.424,2.945-2.136,5.213-2.136c1.777,0,3.172,0.462,4.187,1.384C56.819,83.552,57.326,84.783,57.326,86.32z M51.482,95.378
		c0.911,0,1.822-0.428,2.734-1.282V89.5c-1.801,0.592-3.08,1.168-3.837,1.726c-0.758,0.559-1.137,1.208-1.137,1.948
		c0,0.639,0.208,1.165,0.624,1.581C50.282,95.17,50.821,95.378,51.482,95.378z"/>
	<path fill="#FFFFFF" d="M62.112,97.275V73.4h3.109v23.875H62.112z"/>
	<path fill="#FFFFFF" d="M82.978,89.363v0.324H71.92c0.113,1.493,0.621,2.687,1.521,3.58c0.9,0.895,2.086,1.342,3.555,1.342
		c1.003,0,1.994-0.162,2.975-0.487c0.979-0.324,1.891-0.8,2.734-1.427v3.042c-1.003,0.673-1.989,1.148-2.957,1.427
		c-0.969,0.279-2.028,0.419-3.179,0.419c-1.413,0-2.715-0.336-3.905-1.009c-1.19-0.672-2.136-1.632-2.837-2.879
		c-0.7-1.248-1.051-2.715-1.051-4.4c0-1.516,0.302-2.886,0.905-4.11c0.604-1.225,1.462-2.188,2.572-2.889
		c1.111-0.7,2.401-1.051,3.871-1.051c1.299,0,2.47,0.322,3.512,0.966c1.043,0.644,1.86,1.578,2.453,2.803
		C82.681,86.238,82.978,87.687,82.978,89.363z M76.09,83.945c-1.094,0-2.028,0.373-2.803,1.119c-0.775,0.747-1.208,1.666-1.299,2.76
		h7.913c-0.068-1.207-0.431-2.155-1.086-2.845S77.252,83.945,76.09,83.945z"/>
	<path fill="#FFFFFF" d="M99.777,87.791v9.484h-3.109v-9.416c0-2.678-1.071-4.017-3.213-4.017c-0.729,0-1.428,0.196-2.094,0.59
		c-0.667,0.393-1.233,0.931-1.701,1.614v11.229H86.55V81.552h3.109v2c0.661-0.741,1.428-1.311,2.299-1.709
		c0.872-0.399,1.706-0.599,2.504-0.599c1.675,0,2.979,0.572,3.914,1.718C99.31,84.107,99.777,85.716,99.777,87.791z"/>
	<path fill="#FFFFFF" d="M111.227,97.275c-1.891,0-3.438-0.39-4.64-1.171c-1.202-0.78-2.076-1.76-2.623-2.939
		c-0.547-1.179-0.82-2.401-0.82-3.665c0-1.721,0.355-3.205,1.068-4.452c0.712-1.248,1.663-2.193,2.854-2.837s2.47-0.966,3.837-0.966
		c1.104,0,2.238,0.211,3.4,0.632V73.4h3.111v23.875H111.227z M111.86,94.541h2.443v-9.826c-0.911-0.49-1.947-0.735-3.109-0.735
		c-1.447,0-2.627,0.49-3.538,1.47c-0.912,0.98-1.367,2.342-1.367,4.084c0,1.596,0.484,2.829,1.452,3.7
		C108.709,94.105,110.083,94.541,111.86,94.541z"/>
	<path fill="#FFFFFF" d="M131.974,86.32v7.913c0,0.49,0.199,0.735,0.599,0.735c0.342,0,0.889-0.279,1.641-0.838v2.238
		c-1.22,0.81-2.308,1.214-3.265,1.214c-1.162,0-1.868-0.535-2.119-1.606c-1.355,1.071-2.768,1.606-4.238,1.606
		c-1.104,0-2.024-0.379-2.76-1.137c-0.734-0.757-1.102-1.66-1.102-2.708c0-1.025,0.327-1.889,0.982-2.59
		c0.654-0.7,1.449-1.256,2.384-1.666c0.934-0.41,2.159-0.86,3.675-1.35l1.094-0.342v-0.872c0-0.957-0.234-1.651-0.701-2.085
		c-0.468-0.433-1.18-0.649-2.137-0.649c-0.889,0-1.76,0.217-2.614,0.649c-0.854,0.434-1.641,1.083-2.358,1.948V83.38
		c1.207-1.424,2.945-2.136,5.213-2.136c1.777,0,3.172,0.462,4.187,1.384C131.467,83.552,131.974,84.783,131.974,86.32z
		 M126.13,95.378c0.911,0,1.822-0.428,2.734-1.282V89.5c-1.801,0.592-3.08,1.168-3.837,1.726c-0.758,0.559-1.137,1.208-1.137,1.948
		c0,0.639,0.208,1.165,0.624,1.581C124.93,95.17,125.469,95.378,126.13,95.378z"/>
	<path fill="#FFFFFF" d="M148.04,83.022l-1.658,2.734c-0.468-0.444-0.98-0.812-1.538-1.103c-0.559-0.29-1.049-0.436-1.47-0.436
		c-0.536,0-1.094,0.194-1.675,0.581c-0.581,0.388-1.065,0.938-1.452,1.649c-0.388,0.712-0.582,1.535-0.582,2.469v8.357h-3.109
		V81.552h3.109v3.605c0.866-1.424,1.672-2.432,2.419-3.024c0.746-0.592,1.506-0.889,2.281-0.889c0.626,0,1.259,0.162,1.897,0.487
		C146.9,82.056,147.493,82.487,148.04,83.022z"/>
</g>
</svg>
