<?xml version="1.0" encoding="utf-8"?>
<!-- Generator: Adobe Illustrator 16.0.0, SVG Export Plug-In . SVG Version: 6.00 Build 0)  -->
<!DOCTYPE svg PUBLIC "-//W3C//DTD SVG 1.1//EN" "http://www.w3.org/Graphics/SVG/1.1/DTD/svg11.dtd">
<svg version="1.1" id="Layer_1" xmlns="http://www.w3.org/2000/svg" xmlns:xlink="http://www.w3.org/1999/xlink" x="0px" y="0px"
	 width="567px" height="568px" viewBox="0 0 567 568" enable-background="new 0 0 567 568" xml:space="preserve">
<g>
	<g>
		<path fill="#FFFFFF" d="M303.943,221.654c-1.591-1.59-3.509-2.386-5.756-2.386c-2.237,0-4.151,0.796-5.742,2.386
			c-1.59,1.59-2.385,3.504-2.385,5.742c0,2.246,0.795,4.165,2.385,5.755c1.591,1.59,3.505,2.386,5.742,2.386
			c2.247,0,4.165-0.796,5.756-2.386c1.59-1.59,2.385-3.509,2.385-5.755C306.328,225.158,305.533,223.244,303.943,221.654z"/>
		<path fill="#FFFFFF" d="M172.487,235.537c2.247,0,4.165-0.796,5.756-2.386c1.59-1.59,2.385-3.509,2.385-5.755
			c0-2.238-0.795-4.152-2.385-5.742c-1.591-1.59-3.509-2.386-5.756-2.386c-2.237,0-4.151,0.796-5.742,2.386
			c-1.59,1.59-2.385,3.504-2.385,5.742c0,2.246,0.795,4.165,2.385,5.755C168.336,234.741,170.25,235.537,172.487,235.537z"/>
		<path fill="#FFFFFF" d="M283.5,4C129.688,4,5,128.688,5,282.5S129.688,561,283.5,561S562,436.312,562,282.5S437.312,4,283.5,4z
			 M392,215.031l17-2.525v25.847l-17,2.526V215.031z M346,219h8v1h-7v7h7v1h-7v8h-1V219z M327.891,220.929
			c1.787-1.788,3.943-2.682,6.468-2.682c2.532,0,4.692,0.894,6.48,2.682s2.682,3.943,2.682,6.468c0,2.532-0.894,4.693-2.682,6.48
			c-1.788,1.788-3.948,2.682-6.48,2.682c-2.524,0-4.681-0.894-6.468-2.682c-1.788-1.787-2.682-3.948-2.682-6.48
			C325.209,224.872,326.103,222.717,327.891,220.929z M310,219h1v16h6v1h-7V219z M271.843,220.929
			c1.788-1.788,3.944-2.682,6.468-2.682c2.533,0,4.693,0.894,6.481,2.682c1.787,1.788,2.682,3.943,2.682,6.468
			c0,2.532-0.895,4.693-2.682,6.48c-1.788,1.788-3.948,2.682-6.481,2.682c-2.523,0-4.68-0.894-6.468-2.682
			c-1.788-1.787-2.682-3.948-2.682-6.48C269.161,224.872,270.055,222.717,271.843,220.929z M256,219h1v8h9v-8h1v17h-1v-8h-9v8h-1
			V219z M241.452,220.967c1.78-1.788,3.936-2.683,6.469-2.683c2.355,0,4.404,0.796,6.146,2.386l-0.77,0.682
			c-1.531-1.354-3.323-2.032-5.376-2.032c-2.238,0-4.15,0.791-5.736,2.373s-2.379,3.491-2.379,5.729c0,2.246,0.793,4.16,2.379,5.742
			s3.498,2.373,5.736,2.373c2.053,0,3.845-0.678,5.376-2.032l0.77,0.682c-1.741,1.582-3.79,2.372-6.146,2.372
			c-2.533,0-4.688-0.89-6.469-2.669c-1.779-1.779-2.669-3.936-2.669-6.468C238.783,224.906,239.673,222.754,241.452,220.967z
			 M227.602,231.775c0.102,0.968,0.514,1.81,1.237,2.524c0.841,0.842,1.855,1.262,3.041,1.262c1.187,0,2.2-0.42,3.042-1.262
			c0.841-0.841,1.262-1.855,1.262-3.041c0-1.178-0.421-2.188-1.262-3.029c-0.74-0.74-1.646-1.329-2.714-1.767
			c-1.271-0.421-2.273-0.999-3.01-1.735s-1.104-1.63-1.104-2.682c0-1.026,0.368-1.91,1.104-2.65s1.63-1.111,2.682-1.111
			c1.035,0,1.927,0.371,2.676,1.111c0.404,0.396,0.686,0.837,0.846,1.325l-0.909,0.353c-0.134-0.361-0.353-0.693-0.656-0.996
			c-0.538-0.539-1.19-0.809-1.956-0.809s-1.42,0.27-1.962,0.809c-0.543,0.538-0.814,1.194-0.814,1.969
			c0,0.766,0.27,1.422,0.808,1.969c0.505,0.496,1.203,0.95,2.096,1.362c1.43,0.463,2.633,1.183,3.609,2.158
			c1.026,1.026,1.539,2.268,1.539,3.724c0,1.464-0.516,2.713-1.546,3.748s-2.273,1.552-3.729,1.552
			c-1.464,0-2.709-0.521-3.735-1.564c-0.833-0.824-1.329-1.783-1.489-2.878L227.602,231.775z M166.02,220.929
			c1.788-1.788,3.944-2.682,6.468-2.682c2.533,0,4.693,0.894,6.481,2.682c1.787,1.788,2.682,3.943,2.682,6.468
			c0,2.532-0.895,4.693-2.682,6.48c-1.788,1.788-3.948,2.682-6.481,2.682c-2.523,0-4.68-0.894-6.468-2.682
			c-1.788-1.787-2.682-3.948-2.682-6.48C163.338,224.872,164.231,222.717,166.02,220.929z M153,219h10v1h-4v16h-1v-16h-5V219z
			 M140,219h1v8h9v-8h1v17h-1v-8h-9v8h-1V219z M125.71,220.967c1.78-1.788,3.936-2.683,6.469-2.683c2.355,0,4.404,0.796,6.146,2.386
			l-0.77,0.682c-1.531-1.354-3.323-2.032-5.376-2.032c-2.238,0-4.15,0.791-5.736,2.373s-2.379,3.491-2.379,5.729
			c0,2.246,0.793,4.16,2.379,5.742s3.498,2.373,5.736,2.373c2.053,0,3.845-0.678,5.376-2.032l0.77,0.682
			c-1.741,1.582-3.79,2.372-6.146,2.372c-2.533,0-4.688-0.89-6.469-2.669c-1.779-1.779-2.669-3.936-2.669-6.468
			C123.041,224.906,123.931,222.754,125.71,220.967z M111,219h5.1c1.363,0,2.52,0.502,3.471,1.453
			c1.136,1.145,1.704,2.391,1.704,3.989c0,1.615-0.568,2.929-1.704,4.064c-0.791,0.791-1.695,1.104-2.713,1.349l4.114,6.145h-1.237
			l-3.976-6H112v6h-1V219z M97,219h1v11.678c0,1.321,0.446,2.453,1.389,3.396s2.066,1.413,3.396,1.413
			c1.328,0,2.666-0.471,3.604-1.413c0.938-0.942,1.61-2.074,1.61-3.396V219h1v12.321c-1,1.363-0.958,2.521-1.908,3.471
			c-1.136,1.136-2.61,1.704-4.217,1.704c-1.615,0-3.014-0.568-4.148-1.704C97.59,233.656,97,232.285,97,230.678V219z M83,219h1v8h9
			v-8h1v17h-1v-8h-9v8h-1V219z M68.603,220.967c1.779-1.788,3.936-2.683,6.468-2.683c2.355,0,4.404,0.796,6.146,2.386l-0.771,0.682
			c-1.531-1.354-3.323-2.032-5.376-2.032c-2.238,0-4.15,0.791-5.736,2.373s-2.379,3.491-2.379,5.729c0,2.246,0.793,4.16,2.379,5.742
			s3.498,2.373,5.736,2.373c2.053,0,3.845-0.678,5.376-2.032l0.771,0.682c-1.742,1.582-3.791,2.372-6.146,2.372
			c-2.532,0-4.688-0.89-6.468-2.669s-2.669-3.936-2.669-6.468C65.934,224.906,66.823,222.754,68.603,220.967z M193,335h-27v-48.058
			c0-12.14-3.67-18.294-10.627-18.294c-6.691,0-9.644,5.872-10.541,8.396c-0.432,1.705-0.832,4.248-0.832,6.212V335h-14.914
			c-0.271-1-0.031-2.895,0.417-3.643c0.681-1.133,2.948-2.056,5.669-2.056s4.422,1.475,4.762,1.021
			c0.34-0.455,0.112-1.361,0.112-1.361l-9.069-12.469l4.309-5.895c0,0,3.4-3.968,3.287-5.328s-1.474-3.287-1.474-3.287
			s-6.688-7.71-8.389-9.41s-3.288-1.02-3.741-0.34c-0.453,0.681,0.113,1.816,1.247,2.837s2.494,3.063,2.721,4.876
			s-1.134,4.766-2.267,6.238c-1.133,1.474-5.896,5.677-5.896,5.677l11.79,12.939c0,0-3.742-0.196-5.668-0.648
			c-1.928-0.453-5.441,1.878-5.781,5.052c-0.24,2.24,0.752,4.797,1.363,5.797H117v-49.637c0-6.242-1.408-16.715-10.388-16.715
			c-5.446,0-9.009,4.425-10.465,8.566C95.34,279.287,95,281.718,95,283.608V335H69v-59.99c0-6.916-0.612-8.406-0.953-16.412
			l-0.357-4.115l23.895-8.162l0.826,9.797c4.365-5.844,11.751-11.773,23.758-11.773c10.079,0,18.336,5.056,22.472,13.64
			c2.966-3.979,6.177-7.007,9.739-9.223c5.023-2.978,10.287-4.417,16.052-4.417c17.85,0,28.569,14.416,28.569,38.563V335z
			 M197.855,236h-1.01l-4.304-11.283L188.238,236h-1.01l-4.796-17h1.022l4.367,15.852l4.43-11.852h0.58l4.442,11.852L201.629,219
			h1.022L197.855,236z M205,236h-1v-17h1.302L217,235.12V219h1v17h-1.378L205,220.114V236z M212,297.998v-17.979
			c2,1.389,6.624,0.936,10.037-1.441c0.389-0.271,0.74-0.563,1.087-0.862c4.214,8.873,2.954,16.88,0.151,22.113
			c-1.995,3.726-6.927,6.426-10.686,8.029C212.188,304.874,212,301.611,212,297.998z M214.438,316.502
			c6.857-4.707,10.6-9.857,12.449-14.82c1.452,10.177-5.09,16.155-10.672,19.34C215.561,319.634,214.961,318.136,214.438,316.502z
			 M292.492,335h-24.564l-1.053-10.311c-3.709,4.939-11.494,12.047-24.907,12.047c-6.498,0-15.603-1.717-22.084-9.781
			c12.15-11.953,8.358-25.541,8.358-25.541l-0.494-2.479c2.773-11.384-3.586-21.101-3.586-21.101l-0.383-0.753
			c3.073-3.064,4.08-7.179,2.166-9.928c-1.859-2.673-5.88-3.179-9.722-1.538c-0.237-0.084-0.376-0.05-0.384,0.159
			c-0.665,0.312-1.305,0.67-1.941,1.113c-0.722,0.503-1.898,1.063-1.898,1.656V246h28v47.786c0,12.547,3.857,18.644,11.54,18.644
			c6.165,0,10.08-4.521,11.453-8.393c0.617-1.478,1.007-3.249,1.007-5.338V246h28v59.895c0,11.637,0.235,20.9,0.546,27.584
			L292.492,335z M298.188,236.559c-2.523,0-4.68-0.894-6.468-2.682c-1.788-1.787-2.682-3.948-2.682-6.48
			c0-2.524,0.894-4.68,2.682-6.468s3.944-2.682,6.468-2.682c2.533,0,4.693,0.894,6.481,2.682c1.787,1.788,2.682,3.943,2.682,6.468
			c0,2.532-0.895,4.693-2.682,6.48C302.881,235.665,300.721,236.559,298.188,236.559z M334.961,336.736
			c-10.617,0-20.958-2.299-28.372-6.306l-0.929-0.502l5.441-21.769l1.578,0.958c4.849,2.942,14.746,6.121,22.281,6.121
			c10.047,0,10.047-4.26,10.047-5.66c0-3.542-1.744-5.391-11.535-8.715c-22.461-7.265-25.613-19.992-25.492-26.932
			c0-17.411,14.92-29.589,36.283-29.589c8.881,0,18.096,1.956,24.648,5.232l0.975,0.488l-5.236,20.953l-1.518-0.758
			c-4.238-2.119-11.496-4.594-17.992-4.594c-2.652,0-8.818,0.533-8.818,5.482c0,3.286,2.784,5.16,12.952,8.719
			c8.174,2.725,14.167,6.304,18.134,10.896c-1.298,1.595-3.006,3.256-4.816,3.958c0.627-0.859,1.006-1.91,1.006-3.056
			c0-2.88-2.335-5.214-5.214-5.214c-2.88,0-5.214,2.334-5.214,5.214c0,1.942,1.073,3.616,2.648,4.514
			c1.57,1.185,3.289,1.614,5.041,1.614c0.17,0,0.342-0.008,0.516-0.02c1.894-0.14,3.557-1.054,4.953-2.229l-2.573,9.023
			c-0.848,1.401-2.569,3.773-4.606,5.319c0.23-0.59,0.369-1.226,0.369-1.898c0-2.879-2.336-5.215-5.215-5.215
			c-2.88,0-5.215,2.336-5.215,5.215c0,1.23,0.444,2.345,1.156,3.237c0.943,1.404,2.897,2.941,4.809,2.941
			c0.171,0,0.707-0.059,0.881-0.07c2.351-0.175,4.369-1.481,5.959-2.997l-6.266,21.974
			C349.904,335.457,342.945,336.736,334.961,336.736z M358.899,331.525l10.749-37.695c2.404,3.891,3.626,8.4,3.701,13.624
			C373.35,318.22,368.127,326.55,358.899,331.525z M420,335h-28v-84.599l17-2.526v9.467c-3-2.008-7.361-1.548-10.78,1.349
			c-3.964,3.359-4.847,8.716-2.096,11.964c2.752,3.248,8.225,3.158,12.189-0.201c2.86-2.424,3.687-5.883,3.687-8.844v-14.123
			l8-1.166V335z M420,236.798l-8,1.165v-25.846l8-1.166V236.798z M505.463,332.564c-5.344,2.573-14.714,4.172-24.456,4.172
			c-20.91,0-36.368-9.646-43.091-25.714c0.482,0.133,0.9,0.201,1.162,0.229c0.753,0.166,1.477,0.06,2.01-0.382
			c1.133-0.938,0.983-2.989-0.334-4.58c-1.125-1.357-2.732-1.932-3.885-1.492c-0.102-0.105-0.205-0.208-0.291-0.325
			c-0.355-0.473-0.589-1.044-0.641-1.847c-0.295-4.558,5.439-5.429,7.837-2.231c3.624,4.831,3.11,11.719,6.253,16.805
			c2.063,3.338,6.237,5.646,10.209,4.851c4.748-0.95,8.534-6.69,7.051-11.425c-0.584-1.86-2.057-4.09-4.216-4.471
			c-0.845-0.258-1.676-0.178-2.271,0.315c-1.132,0.939-0.981,2.99,0.338,4.58c1.082,1.309,2.612,1.883,3.754,1.529
			c0.521,0.948,0.032,2.521-0.561,3.311c-1.226,1.626-3.594,2.399-5.508,1.594c-1.615-0.68-4.762-4.591-5.271-8.246
			c-0.51-3.657-0.851-11.649-6.546-14.369c-4.234-2.022-9.398-0.999-12.486,2.526c-0.207-1.966-0.324-3.984-0.324-6.065
			c0-23.388,15.615-46.985,50.497-46.985c7.332,0,15.12,1.278,20.833,3.42l1.096,0.412l-4.803,22.617l-1.533-0.682
			c-3.758-1.67-8.589-2.516-14.363-2.516c-6.276,0-11.646,2.079-15.531,6.014c-4.017,4.066-6.182,9.979-6.099,16.65
			c0,13.902,8.696,22.873,22.155,22.873c5.738,0,10.554-0.881,14.725-2.695l1.607-0.699l3.598,22.388L505.463,332.564z"/>
		<path fill="#FFFFFF" d="M118.852,227.662c0.941-0.938,1.413-2.041,1.413-3.379c0-1.329-0.472-2.205-1.413-3.139
			c-0.942-0.934-2.074-1.145-3.396-1.145H112v9h3.456C116.777,229,117.909,228.6,118.852,227.662z"/>
		<path fill="#FFFFFF" d="M278.311,235.537c2.247,0,4.165-0.796,5.756-2.386c1.59-1.59,2.385-3.509,2.385-5.755
			c0-2.238-0.795-4.152-2.385-5.742c-1.591-1.59-3.509-2.386-5.756-2.386c-2.237,0-4.151,0.796-5.742,2.386
			c-1.59,1.59-2.385,3.504-2.385,5.742c0,2.246,0.795,4.165,2.385,5.755C274.159,234.741,276.073,235.537,278.311,235.537z"/>
		<path fill="#FFFFFF" d="M334.358,235.537c2.246,0,4.165-0.796,5.755-2.386s2.386-3.509,2.386-5.755
			c0-2.238-0.796-4.152-2.386-5.742s-3.509-2.386-5.755-2.386c-2.238,0-4.152,0.796-5.742,2.386
			c-1.591,1.59-2.386,3.504-2.386,5.742c0,2.246,0.795,4.165,2.386,5.755C330.206,234.741,332.12,235.537,334.358,235.537z"/>
	</g>
</g>
</svg>
