<?xml version="1.0" encoding="utf-8"?>
<!-- Generator: Adobe Illustrator 16.0.0, SVG Export Plug-In . SVG Version: 6.00 Build 0)  -->
<!DOCTYPE svg PUBLIC "-//W3C//DTD SVG 1.1//EN" "http://www.w3.org/Graphics/SVG/1.1/DTD/svg11.dtd">
<svg version="1.1" id="Layer_1" xmlns="http://www.w3.org/2000/svg" xmlns:xlink="http://www.w3.org/1999/xlink" x="0px" y="0px"
	 width="170.996px" height="170.664px" viewBox="0 0 170.996 170.664" enable-background="new 0 0 170.996 170.664"
	 xml:space="preserve">
<circle fill="#CD1488" cx="85.652" cy="85.152" r="82.5"/>
<g>
	<path fill="#FFFFFF" d="M51.474,70.884v4.102c-3.216-1.81-6.361-2.715-9.434-2.715c-2.136,0-4.023,0.488-5.664,1.465
		s-2.907,2.263-3.799,3.857c-0.892,1.595-1.338,3.304-1.338,5.127c0,1.81,0.433,3.503,1.299,5.078
		c0.866,1.575,2.112,2.835,3.74,3.779c1.627,0.944,3.535,1.416,5.723,1.416c3.438,0,6.692-1.016,9.766-3.047v4.297
		c-2.995,1.589-6.302,2.383-9.922,2.383c-3.177,0-5.873-0.693-8.086-2.08c-2.214-1.387-3.867-3.145-4.961-5.273
		s-1.641-4.326-1.641-6.592c0-2.617,0.661-5,1.982-7.148c1.321-2.148,3.115-3.835,5.381-5.059s4.733-1.836,7.402-1.836
		C44.983,68.638,48.167,69.387,51.474,70.884z"/>
	<path fill="#FFFFFF" d="M56.162,96.275V68.99h3.555v27.285H56.162z"/>
	<path fill="#FFFFFF" d="M76.376,83.755v9.043c0,0.56,0.228,0.84,0.684,0.84c0.391,0,1.016-0.319,1.875-0.957v2.559
		c-1.394,0.925-2.637,1.387-3.73,1.387c-1.328,0-2.136-0.612-2.422-1.836c-1.55,1.224-3.164,1.836-4.844,1.836
		c-1.263,0-2.314-0.433-3.154-1.299s-1.26-1.897-1.26-3.096c0-1.172,0.374-2.158,1.123-2.959s1.657-1.436,2.725-1.904
		s2.468-0.983,4.199-1.543l1.25-0.391v-0.996c0-1.094-0.267-1.888-0.801-2.383s-1.348-0.742-2.441-0.742
		c-1.016,0-2.012,0.247-2.988,0.742s-1.875,1.237-2.695,2.227v-3.887c1.38-1.628,3.366-2.441,5.957-2.441
		c2.031,0,3.626,0.527,4.785,1.582S76.376,81.998,76.376,83.755z M69.697,94.107c1.042,0,2.083-0.488,3.125-1.465v-5.254
		c-2.058,0.677-3.519,1.335-4.385,1.973s-1.299,1.38-1.299,2.227c0,0.729,0.237,1.331,0.713,1.807S68.942,94.107,69.697,94.107z"/>
	<path fill="#FFFFFF" d="M86.728,77.955c1.836,0,3.652,0.495,5.449,1.484v3.555c-1.094-0.664-2.041-1.149-2.842-1.455
		s-1.592-0.459-2.373-0.459c-0.769,0-1.338,0.134-1.709,0.4s-0.557,0.583-0.557,0.947c0,0.352,0.071,0.647,0.215,0.889
		s0.469,0.547,0.977,0.918s1.296,0.862,2.363,1.475c1.458,0.859,2.624,1.716,3.496,2.568s1.309,1.931,1.309,3.232
		c0,0.781-0.208,1.565-0.625,2.354s-1.091,1.445-2.021,1.973s-2.106,0.791-3.525,0.791c-1.016,0-1.943-0.11-2.783-0.332
		s-1.911-0.657-3.213-1.309v-3.828c0.859,0.664,1.819,1.224,2.881,1.68s2.009,0.684,2.842,0.684c0.938,0,1.631-0.159,2.08-0.479
		s0.674-0.72,0.674-1.201c0-0.403-0.085-0.739-0.254-1.006s-0.544-0.599-1.123-0.996s-1.546-0.999-2.9-1.807
		c-1.328-0.82-2.341-1.638-3.037-2.451s-1.045-1.794-1.045-2.939c0-1.367,0.54-2.49,1.621-3.369S85.075,77.955,86.728,77.955z"/>
	<path fill="#FFFFFF" d="M102.119,77.955c1.836,0,3.652,0.495,5.449,1.484v3.555c-1.094-0.664-2.041-1.149-2.842-1.455
		s-1.592-0.459-2.373-0.459c-0.769,0-1.338,0.134-1.709,0.4s-0.557,0.583-0.557,0.947c0,0.352,0.071,0.647,0.215,0.889
		s0.469,0.547,0.977,0.918s1.296,0.862,2.363,1.475c1.458,0.859,2.624,1.716,3.496,2.568s1.309,1.931,1.309,3.232
		c0,0.781-0.208,1.565-0.625,2.354s-1.091,1.445-2.021,1.973s-2.106,0.791-3.525,0.791c-1.016,0-1.943-0.11-2.783-0.332
		s-1.911-0.657-3.213-1.309v-3.828c0.859,0.664,1.819,1.224,2.881,1.68s2.009,0.684,2.842,0.684c0.938,0,1.631-0.159,2.08-0.479
		s0.674-0.72,0.674-1.201c0-0.403-0.085-0.739-0.254-1.006s-0.544-0.599-1.123-0.996s-1.546-0.999-2.9-1.807
		c-1.328-0.82-2.341-1.638-3.037-2.451s-1.045-1.794-1.045-2.939c0-1.367,0.54-2.49,1.621-3.369S100.465,77.955,102.119,77.955z"/>
	<path fill="#FFFFFF" d="M127.705,87.232v0.371h-12.637c0.13,1.706,0.71,3.069,1.738,4.092s2.383,1.533,4.063,1.533
		c1.146,0,2.278-0.186,3.398-0.557s2.161-0.915,3.125-1.631v3.477c-1.146,0.769-2.272,1.312-3.379,1.631s-2.317,0.479-3.633,0.479
		c-1.614,0-3.103-0.384-4.463-1.152s-2.441-1.865-3.242-3.291s-1.201-3.103-1.201-5.029c0-1.731,0.345-3.298,1.035-4.697
		s1.67-2.5,2.939-3.301s2.744-1.201,4.424-1.201c1.484,0,2.822,0.368,4.014,1.104s2.126,1.804,2.803,3.203
		S127.705,85.318,127.705,87.232z M119.833,81.041c-1.25,0-2.317,0.427-3.203,1.279s-1.38,1.904-1.484,3.154h9.043
		c-0.078-1.38-0.491-2.464-1.24-3.252S121.162,81.041,119.833,81.041z"/>
	<path fill="#FFFFFF" d="M136.669,77.955c1.836,0,3.652,0.495,5.449,1.484v3.555c-1.094-0.664-2.041-1.149-2.842-1.455
		s-1.592-0.459-2.373-0.459c-0.769,0-1.338,0.134-1.709,0.4s-0.557,0.583-0.557,0.947c0,0.352,0.071,0.647,0.215,0.889
		s0.469,0.547,0.977,0.918s1.296,0.862,2.363,1.475c1.458,0.859,2.624,1.716,3.496,2.568s1.309,1.931,1.309,3.232
		c0,0.781-0.208,1.565-0.625,2.354s-1.091,1.445-2.021,1.973s-2.106,0.791-3.525,0.791c-1.016,0-1.943-0.11-2.783-0.332
		s-1.911-0.657-3.213-1.309v-3.828c0.859,0.664,1.819,1.224,2.881,1.68s2.009,0.684,2.842,0.684c0.938,0,1.631-0.159,2.08-0.479
		s0.674-0.72,0.674-1.201c0-0.403-0.085-0.739-0.254-1.006s-0.544-0.599-1.123-0.996s-1.546-0.999-2.9-1.807
		c-1.328-0.82-2.341-1.638-3.037-2.451s-1.045-1.794-1.045-2.939c0-1.367,0.54-2.49,1.621-3.369S135.016,77.955,136.669,77.955z"/>
</g>
</svg>
