<?xml version="1.0" encoding="utf-8"?>
<!-- Generator: Adobe Illustrator 16.0.0, SVG Export Plug-In . SVG Version: 6.00 Build 0)  -->
<!DOCTYPE svg PUBLIC "-//W3C//DTD SVG 1.1//EN" "http://www.w3.org/Graphics/SVG/1.1/DTD/svg11.dtd">
<svg version="1.1" id="Layer_1" xmlns="http://www.w3.org/2000/svg" xmlns:xlink="http://www.w3.org/1999/xlink" x="0px" y="0px"
	 width="170.996px" height="170.664px" viewBox="0 0 170.996 170.664" enable-background="new 0 0 170.996 170.664"
	 xml:space="preserve">
<circle fill="#CD1488" cx="85.652" cy="85.152" r="82.5"/>
<g>
	<path fill="#FFFFFF" d="M40.334,78.771v2.666c-2.09-1.177-4.134-1.765-6.132-1.765c-1.388,0-2.615,0.317-3.682,0.952
		s-1.89,1.471-2.469,2.508c-0.58,1.036-0.87,2.147-0.87,3.332c0,1.177,0.281,2.276,0.844,3.301s1.373,1.843,2.431,2.457
		c1.058,0.613,2.298,0.92,3.72,0.92c2.234,0,4.35-0.66,6.348-1.98v2.793c-1.947,1.032-4.096,1.549-6.449,1.549
		c-2.065,0-3.817-0.451-5.256-1.352c-1.439-0.902-2.514-2.045-3.225-3.428c-0.711-1.385-1.066-2.813-1.066-4.285
		c0-1.701,0.43-3.25,1.289-4.646s2.025-2.492,3.498-3.288s3.077-1.193,4.812-1.193C36.115,77.311,38.185,77.797,40.334,78.771z"/>
	<path fill="#FFFFFF" d="M55.112,89.448c0,1.337-0.317,2.461-0.952,3.37c-0.635,0.91-1.428,1.585-2.381,2.025
		c-0.951,0.44-1.932,0.66-2.938,0.66c-1.295,0-2.417-0.294-3.364-0.883c-0.948-0.588-1.659-1.341-2.133-2.26
		c-0.474-0.918-0.711-1.863-0.711-2.837c0-1.159,0.26-2.207,0.781-3.142c0.521-0.936,1.257-1.672,2.209-2.209
		c0.952-0.538,2.05-0.807,3.294-0.807c1.168,0,2.224,0.256,3.167,0.768c0.944,0.513,1.685,1.228,2.223,2.146
		C54.843,87.199,55.112,88.254,55.112,89.448z M44.994,89.448c0,1.219,0.368,2.188,1.104,2.907s1.667,1.079,2.793,1.079
		c1.143,0,2.069-0.379,2.78-1.136c0.711-0.758,1.066-1.717,1.066-2.876c0-1.295-0.385-2.281-1.155-2.958s-1.71-1.016-2.818-1.016
		c-1.092,0-1.993,0.364-2.704,1.092S44.994,88.238,44.994,89.448z"/>
	<path fill="#FFFFFF" d="M67.553,88.229v7.046h-2.311V88.28c0-1.989-0.796-2.983-2.387-2.983c-0.542,0-1.06,0.146-1.556,0.438
		c-0.494,0.293-0.916,0.692-1.263,1.2v8.341h-2.311v-11.68h2.311v1.485c0.491-0.55,1.06-0.974,1.708-1.27
		c0.646-0.296,1.267-0.444,1.859-0.444c1.244,0,2.213,0.426,2.907,1.275C67.207,85.494,67.553,86.689,67.553,88.229z"/>
	<path fill="#FFFFFF" d="M73.457,83.595h3.694v2.082h-3.694v5.434c0,0.711,0.107,1.271,0.324,1.682
		c0.215,0.411,0.653,0.616,1.313,0.616c0.905,0,1.79-0.279,2.653-0.838v2.158c-0.397,0.245-0.878,0.436-1.441,0.571
		c-0.563,0.136-1.081,0.203-1.555,0.203c-1.193,0-2.093-0.341-2.697-1.021c-0.605-0.682-0.908-1.806-0.908-3.371v-5.434h-2.031
		v-0.229l4.291-4.266h0.051V83.595z"/>
	<path fill="#FFFFFF" d="M87.79,87.137v5.878c0,0.364,0.148,0.546,0.444,0.546c0.254,0,0.66-0.207,1.219-0.622v1.663
		c-0.905,0.601-1.714,0.901-2.425,0.901c-0.863,0-1.388-0.397-1.574-1.193c-1.007,0.796-2.057,1.193-3.148,1.193
		c-0.821,0-1.505-0.281-2.05-0.844c-0.547-0.563-0.819-1.234-0.819-2.013c0-0.762,0.243-1.403,0.729-1.923
		c0.487-0.521,1.077-0.934,1.771-1.238s1.604-0.639,2.729-1.003l0.813-0.254v-0.647c0-0.711-0.174-1.228-0.521-1.549
		s-0.876-0.482-1.587-0.482c-0.66,0-1.308,0.161-1.942,0.482s-1.219,0.804-1.752,1.447v-2.526c0.897-1.058,2.188-1.587,3.872-1.587
		c1.32,0,2.357,0.343,3.11,1.028S87.79,85.995,87.79,87.137z M83.448,93.866c0.677,0,1.354-0.317,2.031-0.952v-3.415
		c-1.337,0.44-2.287,0.867-2.851,1.282c-0.563,0.415-0.844,0.897-0.844,1.447c0,0.474,0.154,0.865,0.463,1.174
		C82.557,93.711,82.957,93.866,83.448,93.866z"/>
	<path fill="#FFFFFF" d="M99.228,84.179v2.463c-0.593-0.381-1.141-0.658-1.644-0.832c-0.504-0.173-1.039-0.26-1.606-0.26
		c-0.745,0-1.382,0.182-1.911,0.546c-0.528,0.364-0.933,0.84-1.212,1.429c-0.279,0.588-0.419,1.221-0.419,1.897
		c0,1.024,0.313,1.93,0.939,2.717s1.638,1.181,3.034,1.181c0.559,0,1.073-0.067,1.542-0.203c0.471-0.136,0.98-0.326,1.53-0.571
		v2.285c-1.143,0.448-2.276,0.673-3.402,0.673c-1.405,0-2.558-0.299-3.46-0.895c-0.9-0.598-1.551-1.346-1.948-2.248
		c-0.397-0.9-0.597-1.817-0.597-2.748c0-1.27,0.245-2.376,0.736-3.32c0.491-0.943,1.17-1.667,2.037-2.17
		c0.868-0.504,1.856-0.756,2.965-0.756c0.575,0,1.123,0.062,1.645,0.184C97.977,83.673,98.568,83.883,99.228,84.179z"/>
	<path fill="#FFFFFF" d="M104.814,83.595h3.694v2.082h-3.694v5.434c0,0.711,0.107,1.271,0.324,1.682
		c0.215,0.411,0.653,0.616,1.313,0.616c0.905,0,1.79-0.279,2.653-0.838v2.158c-0.397,0.245-0.878,0.436-1.441,0.571
		c-0.563,0.136-1.081,0.203-1.555,0.203c-1.193,0-2.093-0.341-2.697-1.021c-0.605-0.682-0.908-1.806-0.908-3.371v-5.434h-2.031
		v-0.229l4.291-4.266h0.051V83.595z"/>
	<path fill="#FFFFFF" d="M126.079,93.244c1.718,0,2.989-0.434,3.815-1.301c0.824-0.868,1.237-2.254,1.237-4.158V77.54h2.539v10.245
		c0,2.463-0.637,4.365-1.911,5.707c-1.273,1.341-3.167,2.012-5.681,2.012c-2.497,0-4.395-0.637-5.694-1.91
		c-1.299-1.274-1.948-3.202-1.948-5.783V77.54h2.552V87.81c0,1.93,0.415,3.317,1.244,4.164S124.343,93.244,126.079,93.244z"/>
	<path fill="#FFFFFF" d="M140.247,83.367c1.193,0,2.374,0.321,3.542,0.965v2.311c-0.711-0.432-1.326-0.747-1.848-0.945
		c-0.52-0.199-1.034-0.299-1.542-0.299c-0.499,0-0.87,0.087-1.11,0.26c-0.242,0.174-0.362,0.379-0.362,0.616
		c0,0.229,0.047,0.421,0.14,0.577c0.093,0.157,0.305,0.355,0.635,0.598c0.33,0.24,0.842,0.561,1.536,0.958
		c0.948,0.559,1.705,1.115,2.272,1.669c0.567,0.555,0.851,1.255,0.851,2.102c0,0.508-0.136,1.018-0.406,1.529
		c-0.271,0.513-0.709,0.939-1.313,1.283c-0.605,0.342-1.369,0.514-2.292,0.514c-0.66,0-1.263-0.072-1.81-0.216
		c-0.545-0.144-1.241-0.428-2.088-0.851v-2.488c0.559,0.432,1.183,0.796,1.873,1.092c0.689,0.296,1.305,0.444,1.847,0.444
		c0.609,0,1.06-0.104,1.353-0.312c0.291-0.207,0.438-0.467,0.438-0.78c0-0.263-0.055-0.48-0.165-0.653
		c-0.11-0.174-0.354-0.39-0.729-0.648c-0.377-0.258-1.006-0.649-1.886-1.174c-0.863-0.533-1.521-1.064-1.974-1.594
		c-0.453-0.528-0.68-1.165-0.68-1.91c0-0.889,0.352-1.619,1.054-2.189C138.283,83.652,139.171,83.367,140.247,83.367z"/>
</g>
</svg>
