<?xml version="1.0" encoding="utf-8"?>
<!-- Generator: Adobe Illustrator 16.0.0, SVG Export Plug-In . SVG Version: 6.00 Build 0)  -->
<!DOCTYPE svg PUBLIC "-//W3C//DTD SVG 1.1//EN" "http://www.w3.org/Graphics/SVG/1.1/DTD/svg11.dtd">
<svg version="1.1" id="Layer_1" xmlns="http://www.w3.org/2000/svg" xmlns:xlink="http://www.w3.org/1999/xlink" x="0px" y="0px"
	 width="170.995px" height="170.663px" viewBox="0 0 170.995 170.663" enable-background="new 0 0 170.995 170.663"
	 xml:space="preserve">
<circle fill="#CD1488" cx="85.652" cy="85.152" r="82.5"/>
<g>
	<path fill="#FFFFFF" d="M56.659,73.204v7.578h10.645v3.516H56.659v12.676h-3.906V69.688h14.551v3.516H56.659z"/>
	<path fill="#FFFFFF" d="M85.526,87.93v0.371H72.889c0.13,1.706,0.709,3.07,1.738,4.092c1.028,1.022,2.383,1.533,4.063,1.533
		c1.146,0,2.278-0.186,3.398-0.557c1.12-0.371,2.161-0.915,3.125-1.631v3.477c-1.146,0.769-2.272,1.312-3.379,1.631
		c-1.107,0.319-2.318,0.479-3.633,0.479c-1.615,0-3.103-0.384-4.463-1.152c-1.361-0.768-2.441-1.865-3.242-3.291
		s-1.201-3.102-1.201-5.029c0-1.731,0.345-3.297,1.035-4.697c0.69-1.399,1.67-2.5,2.939-3.301s2.744-1.201,4.424-1.201
		c1.484,0,2.822,0.368,4.014,1.104c1.191,0.736,2.125,1.804,2.803,3.203C85.187,84.359,85.526,86.016,85.526,87.93z M77.655,81.739
		c-1.25,0-2.318,0.427-3.203,1.279c-0.886,0.853-1.38,1.904-1.484,3.154h9.043c-0.078-1.38-0.492-2.464-1.24-3.252
		C80.021,82.133,78.983,81.739,77.655,81.739z"/>
	<path fill="#FFFFFF" d="M104.686,87.93v0.371H92.049c0.13,1.706,0.709,3.07,1.738,4.092c1.028,1.022,2.383,1.533,4.063,1.533
		c1.146,0,2.278-0.186,3.398-0.557c1.12-0.371,2.161-0.915,3.125-1.631v3.477c-1.146,0.769-2.272,1.312-3.379,1.631
		c-1.107,0.319-2.318,0.479-3.633,0.479c-1.615,0-3.103-0.384-4.463-1.152c-1.361-0.768-2.441-1.865-3.242-3.291
		s-1.201-3.102-1.201-5.029c0-1.731,0.345-3.297,1.035-4.697c0.69-1.399,1.67-2.5,2.939-3.301s2.744-1.201,4.424-1.201
		c1.484,0,2.822,0.368,4.014,1.104c1.191,0.736,2.125,1.804,2.803,3.203C104.347,84.359,104.686,86.016,104.686,87.93z
		 M96.815,81.739c-1.25,0-2.318,0.427-3.203,1.279c-0.886,0.853-1.38,1.904-1.484,3.154h9.043c-0.078-1.38-0.492-2.464-1.24-3.252
		C99.181,82.133,98.143,81.739,96.815,81.739z"/>
	<path fill="#FFFFFF" d="M113.651,78.653c1.836,0,3.652,0.495,5.449,1.484v3.555c-1.094-0.664-2.041-1.149-2.842-1.455
		c-0.801-0.306-1.592-0.459-2.373-0.459c-0.769,0-1.338,0.134-1.709,0.4c-0.371,0.267-0.557,0.583-0.557,0.947
		c0,0.352,0.071,0.648,0.215,0.889c0.143,0.241,0.469,0.547,0.977,0.918s1.295,0.863,2.363,1.475
		c1.458,0.859,2.624,1.716,3.496,2.568c0.872,0.853,1.309,1.931,1.309,3.232c0,0.781-0.208,1.566-0.625,2.354
		c-0.417,0.788-1.091,1.445-2.021,1.973c-0.931,0.527-2.106,0.791-3.525,0.791c-1.016,0-1.943-0.111-2.783-0.332
		s-1.911-0.657-3.213-1.309v-3.828c0.859,0.664,1.819,1.224,2.881,1.68c1.061,0.456,2.008,0.684,2.842,0.684
		c0.938,0,1.631-0.159,2.08-0.479c0.449-0.319,0.674-0.719,0.674-1.201c0-0.403-0.085-0.739-0.254-1.006
		c-0.169-0.267-0.544-0.599-1.123-0.996c-0.58-0.397-1.546-0.999-2.9-1.807c-1.328-0.82-2.341-1.637-3.037-2.451
		c-0.697-0.813-1.045-1.793-1.045-2.939c0-1.367,0.54-2.49,1.621-3.369C110.63,79.092,111.997,78.653,113.651,78.653z"/>
</g>
</svg>
