<?xml version="1.0" encoding="utf-8"?>
<!-- Generator: Adobe Illustrator 16.0.0, SVG Export Plug-In . SVG Version: 6.00 Build 0)  -->
<!DOCTYPE svg PUBLIC "-//W3C//DTD SVG 1.1//EN" "http://www.w3.org/Graphics/SVG/1.1/DTD/svg11.dtd">
<svg version="1.1" id="Layer_1" xmlns="http://www.w3.org/2000/svg" xmlns:xlink="http://www.w3.org/1999/xlink" x="0px" y="0px"
	 width="570px" height="371px" viewBox="-104.5 -9.5 570 371" enable-background="new -104.5 -9.5 570 371" xml:space="preserve">
<linearGradient id="SVGID_1_" gradientUnits="userSpaceOnUse" x1="-99.835" y1="286.498" x2="6.165" y2="286.498">
	<stop  offset="0" style="stop-color:#8A0B5F"/>
	<stop  offset="0.1856" style="stop-color:#860B5D"/>
	<stop  offset="0.3548" style="stop-color:#7B0A55"/>
	<stop  offset="0.5177" style="stop-color:#690848"/>
	<stop  offset="0.6767" style="stop-color:#4F0636"/>
	<stop  offset="0.8329" style="stop-color:#2D041F"/>
	<stop  offset="0.9849" style="stop-color:#040003"/>
	<stop  offset="1" style="stop-color:#000000"/>
</linearGradient>
<polyline fill="url(#SVGID_1_)" points="6.165,260.831 -99.835,260.831 -69.835,286.498 -99.835,312.164 6.165,312.164 "/>
<polyline fill="#3A0B2F" points="-30.415,283.497 6.165,260.831 6.165,283.497 "/>
<circle fill="#CD1488" cx="179.5" cy="178.5" r="174.5"/>
<g>
	<g>
		<path fill="#FFFFFF" d="M48.824,147.123l0.998,0.888c-1.283,1.168-2.697,1.752-4.24,1.752c-1.659,0-3.061-0.572-4.205-1.716
			s-1.715-2.516-1.715-4.117c0-1.585,0.571-2.954,1.715-4.105c1.145-1.152,2.546-1.728,4.205-1.728c1.543,0,2.957,0.586,4.24,1.76
			l-0.998,0.888c-1.047-0.925-2.127-1.387-3.242-1.387c-1.215,0-2.266,0.442-3.15,1.328c-0.884,0.886-1.328,1.967-1.328,3.246
			c0,1.289,0.443,2.375,1.328,3.257c0.885,0.883,1.936,1.324,3.15,1.324C46.697,148.51,47.777,148.048,48.824,147.123z"/>
		<path fill="#FFFFFF" d="M52.502,144.555v5.081h-1.436V138.23h1.436v5.081h4.684v-5.081h1.435v11.405h-1.435v-5.081L52.502,144.555
			L52.502,144.555z"/>
		<path fill="#FFFFFF" d="M66.665,138.23H68.1v8.068c-0.121,0.893-0.505,1.662-1.149,2.307c-0.745,0.75-1.667,1.125-2.767,1.125
			c-1.109,0-2.041-0.379-2.797-1.138c-0.756-0.758-1.134-1.658-1.134-2.699v-7.664h1.435v7.664c0,0.729,0.248,1.344,0.745,1.843
			c0.497,0.5,1.081,0.749,1.751,0.749c0.666,0,1.246-0.25,1.74-0.749c0.494-0.499,0.741-1.113,0.741-1.843V138.23z"/>
		<path fill="#FFFFFF" d="M72.648,145.903H71.31v3.733h-1.435V138.23h3.266c0.951,0.127,1.746,0.513,2.385,1.157
			c0.746,0.745,1.118,1.635,1.118,2.671c0,1.041-0.384,1.945-1.149,2.711c-0.507,0.512-0.956,0.816-1.348,0.911l2.561,3.955h-1.656
			L72.648,145.903z M71.31,139.483v5.167h1.411c0.666,0,1.246-0.247,1.743-0.741c0.497-0.494,0.745-1.111,0.745-1.851
			c0-0.734-0.248-1.347-0.745-1.839c-0.497-0.491-1.077-0.737-1.743-0.737L71.31,139.483L71.31,139.483z"/>
		<path fill="#FFFFFF" d="M86.986,147.123l0.999,0.888c-1.284,1.168-2.698,1.752-4.24,1.752c-1.659,0-3.062-0.572-4.205-1.716
			c-1.144-1.144-1.716-2.516-1.716-4.117c0-1.585,0.572-2.954,1.716-4.105c1.144-1.151,2.546-1.728,4.205-1.728
			c1.542,0,2.956,0.586,4.24,1.76l-0.999,0.888c-1.046-0.925-2.127-1.387-3.241-1.387c-1.216,0-2.266,0.442-3.151,1.328
			c-0.885,0.885-1.327,1.967-1.327,3.246c0,1.289,0.442,2.375,1.327,3.257c0.886,0.883,1.936,1.324,3.151,1.324
			C84.859,148.51,85.94,148.048,86.986,147.123z"/>
		<path fill="#FFFFFF" d="M90.664,144.555v5.081H89.23V138.23h1.434v5.081h4.685v-5.081h1.435v11.405h-1.435v-5.081L90.664,144.555
			L90.664,144.555z"/>
		<path fill="#FFFFFF" d="M101.935,139.475v10.161h-1.427v-10.161h-2.727v-1.244h6.872v1.244H101.935z"/>
		<path fill="#FFFFFF" d="M114.961,139.8c1.148,1.152,1.724,2.523,1.724,4.113c0,1.601-0.575,2.977-1.724,4.125
			c-1.149,1.149-2.554,1.724-4.213,1.724c-1.654,0-3.055-0.575-4.205-1.724c-1.148-1.149-1.724-2.524-1.724-4.125
			c0-1.59,0.575-2.961,1.724-4.113c1.15-1.152,2.551-1.728,4.205-1.728C112.407,138.072,113.812,138.648,114.961,139.8z
			 M110.748,139.324c-1.215,0-2.267,0.445-3.154,1.335c-0.888,0.891-1.332,1.975-1.332,3.253c0,1.29,0.444,2.378,1.332,3.266
			c0.888,0.888,1.939,1.332,3.154,1.332c1.221,0,2.275-0.444,3.162-1.332c0.889-0.888,1.332-1.976,1.332-3.266
			c0-1.278-0.443-2.363-1.332-3.253C113.023,139.77,111.969,139.324,110.748,139.324z"/>
		<path fill="#FFFFFF" d="M124.254,141.084l2.307,5.952l2.361-8.806h1.451l-3.06,11.405h-1.253l-2.282-6.008l-2.29,6.008h-1.252
			l-3.061-11.405h1.459l2.369,8.806l2.291-5.952H124.254z"/>
		<path fill="#FFFFFF" d="M132.655,138.23l6.499,9.115v-9.115h1.435v11.405h-1.585l-6.333-8.885v8.885h-1.435V138.23H132.655z"/>
		<path fill="#FFFFFF" d="M149.529,143.636c-0.819-0.271-1.477-0.652-1.974-1.149c-0.497-0.497-0.745-1.097-0.745-1.799
			c0-0.687,0.258-1.291,0.773-1.811c0.515-0.521,1.155-0.781,1.922-0.781c0.755,0,1.402,0.267,1.941,0.801
			c0.279,0.274,0.499,0.66,0.658,1.157l-1.285,0.5c-0.158-0.428-0.301-0.706-0.428-0.832c-0.258-0.264-0.555-0.396-0.887-0.396
			c-0.328,0-0.62,0.128-0.877,0.384c-0.256,0.256-0.384,0.583-0.384,0.979c0,0.391,0.132,0.724,0.396,0.999
			c0.274,0.264,0.649,0.507,1.126,0.729c0.908,0.296,1.669,0.75,2.281,1.363c0.703,0.697,1.055,1.521,1.055,2.473
			c0,0.952-0.348,1.774-1.042,2.469c-0.694,0.695-1.547,1.042-2.556,1.042c-1.016,0-1.873-0.357-2.576-1.07
			c-0.55-0.544-0.889-1.25-1.015-2.116l1.379-0.499c0.085,0.83,0.319,1.435,0.706,1.815c0.422,0.423,0.924,0.634,1.506,0.634
			c0.586,0,1.098-0.218,1.533-0.654c0.436-0.436,0.654-0.976,0.654-1.621s-0.215-1.181-0.643-1.609
			C150.617,144.214,150.11,143.879,149.529,143.636z"/>
		<path fill="#FFFFFF" d="M163.288,147.123l0.999,0.888c-1.284,1.168-2.697,1.752-4.24,1.752c-1.66,0-3.061-0.572-4.205-1.716
			c-1.145-1.144-1.716-2.516-1.716-4.117c0-1.585,0.571-2.954,1.716-4.105c1.145-1.151,2.545-1.728,4.205-1.728
			c1.543,0,2.956,0.586,4.24,1.76l-0.999,0.888c-1.046-0.925-2.126-1.387-3.241-1.387c-1.216,0-2.266,0.442-3.15,1.328
			c-0.884,0.886-1.328,1.967-1.328,3.246c0,1.289,0.443,2.375,1.328,3.257c0.885,0.883,1.935,1.324,3.15,1.324
			C161.162,148.51,162.242,148.048,163.288,147.123z"/>
		<path fill="#FFFFFF" d="M166.966,144.555v5.081h-1.435V138.23h1.435v5.081h4.685v-5.081h1.434v11.405h-1.434v-5.081
			L166.966,144.555L166.966,144.555z"/>
		<path fill="#FFFFFF" d="M184.462,139.8c1.149,1.152,1.724,2.523,1.724,4.113c0,1.601-0.574,2.977-1.724,4.125
			c-1.149,1.149-2.554,1.724-4.212,1.724c-1.654,0-3.056-0.575-4.205-1.724s-1.725-2.524-1.725-4.125
			c0-1.59,0.575-2.961,1.725-4.113c1.15-1.152,2.551-1.728,4.205-1.728C181.908,138.072,183.313,138.648,184.462,139.8z
			 M180.25,139.324c-1.216,0-2.268,0.445-3.154,1.335c-0.889,0.891-1.332,1.975-1.332,3.253c0,1.29,0.443,2.378,1.332,3.266
			c0.887,0.888,1.938,1.332,3.154,1.332c1.221,0,2.273-0.444,3.162-1.332c0.888-0.888,1.332-1.976,1.332-3.266
			c0-1.278-0.444-2.363-1.332-3.253C182.523,139.77,181.471,139.324,180.25,139.324z"/>
		<path fill="#FFFFFF" d="M197.311,139.8c1.148,1.152,1.724,2.523,1.724,4.113c0,1.601-0.574,2.977-1.724,4.125
			c-1.149,1.149-2.555,1.724-4.213,1.724c-1.654,0-3.056-0.575-4.205-1.724c-1.148-1.149-1.725-2.524-1.725-4.125
			c0-1.59,0.575-2.961,1.725-4.113c1.15-1.152,2.551-1.728,4.205-1.728C194.756,138.072,196.16,138.648,197.311,139.8z
			 M193.098,139.324c-1.216,0-2.268,0.445-3.154,1.335c-0.889,0.891-1.332,1.975-1.332,3.253c0,1.29,0.443,2.378,1.332,3.266
			c0.888,0.888,1.938,1.332,3.154,1.332c1.221,0,2.274-0.444,3.162-1.332c0.889-0.888,1.332-1.976,1.332-3.266
			c0-1.278-0.443-2.363-1.332-3.253C195.372,139.77,194.318,139.324,193.098,139.324z"/>
		<path fill="#FFFFFF" d="M200.413,149.636V138.23h1.435v10.161h4.098v1.244L200.413,149.636L200.413,149.636z"/>
		<path fill="#FFFFFF" d="M221.016,139.8c1.149,1.152,1.726,2.523,1.726,4.113c0,1.601-0.575,2.977-1.726,4.125
			c-1.147,1.149-2.553,1.724-4.213,1.724c-1.652,0-3.055-0.575-4.203-1.724c-1.149-1.149-1.725-2.524-1.725-4.125
			c0-1.59,0.574-2.961,1.725-4.113c1.149-1.152,2.551-1.728,4.203-1.728C218.463,138.072,219.867,138.648,221.016,139.8z
			 M216.803,139.324c-1.215,0-2.266,0.445-3.154,1.335c-0.887,0.891-1.33,1.975-1.33,3.253c0,1.29,0.443,2.378,1.33,3.266
			c0.89,0.888,1.939,1.332,3.154,1.332c1.221,0,2.275-0.444,3.163-1.332c0.888-0.888,1.331-1.976,1.331-3.266
			c0-1.278-0.443-2.363-1.331-3.253C219.078,139.77,218.023,139.324,216.803,139.324z"/>
		<path fill="#FFFFFF" d="M229.65,138.23v1.244h-4.098v3.836h4.098v1.244h-4.098v5.081h-1.435V138.23H229.65z"/>
	</g>
	<path fill="#BCD43A" d="M101.289,154.658c-3.621,0-6.812,0.904-9.966,2.774c-2.237,1.392-4.196,3.294-6.06,5.792
		c-2.597-5.391-7.753-8.566-14.082-8.566c-7.541,0-12.166,3.725-14.906,7.395l-0.512-6.152l-15.002,5.125l0.432,2.584
		c0.214,5.028,0.807,5.965,0.807,10.309V211h16v-31.683c0-1.188,0.171-2.714,0.679-4.016c0.914-2.601,3.265-5.379,6.685-5.379
		c5.639,0,6.637,6.576,6.637,10.497V211h3.172c-0.383,0-1.006-1.938-0.855-3.344c0.213-1.994,2.42-3.311,3.631-3.025
		c1.21,0.284,3.559,0.48,3.559,0.48l-7.403-8.09c0,0,2.991-2.619,3.702-3.545s1.566-2.771,1.424-3.908
		c-0.142-1.139-0.996-2.418-1.709-3.06c-0.712-0.64-1.067-1.353-0.783-1.778c0.285-0.428,1.281-0.854,2.35,0.215
		c1.068,1.068,5.269,5.91,5.269,5.91s0.854,1.211,0.926,2.063c0.07,0.854-2.065,3.347-2.065,3.347l-2.705,3.703l5.695,7.83
		c0,0,0.143,0.569-0.07,0.854c-0.214,0.285-1.282-0.641-2.99-0.641c-1.709,0-3.133,0.283-3.561,0.994
		c-0.281,0.471-0.432,1.992-0.262,1.992H89v-31.903c0-1.233,0.096-2.831,0.367-3.901c0.563-1.584,2.087-5.272,6.289-5.272
		c4.369,0,6.344,3.864,6.344,11.488V211h17v-32.123C119,163.713,112.498,154.658,101.289,154.658z"/>
	<g>
		<path fill="#BCD43A" d="M140.742,190.668c-1.162,3.117-3.512,6.352-7.818,9.307c0.329,1.026,0.705,1.967,1.117,2.838
			C137.547,200.813,141.654,197.059,140.742,190.668z"/>
		<path fill="#BCD43A" d="M137.5,176.158c-2.144,1.492-4.5,1.777-6.5,0.904v11.292c0,2.27,0.314,4.317,0.566,6.192
			c2.361-1.008,5.557-2.702,6.81-5.043c1.761-3.287,2.501-8.313-0.144-13.889C138.014,175.805,137.744,175.988,137.5,176.158z"/>
		<path fill="#BCD43A" d="M182,193.313V156h-18v32.795c0,1.311-0.22,2.424-0.607,3.352c-0.862,2.433-3.297,5.271-7.169,5.271
			c-4.825,0-7.224-3.83-7.224-11.709V156h-18v13.857c1-0.372,0.936-0.724,1.39-1.04c0.399-0.278,0.899-0.503,1.317-0.698
			c0.004-0.132,0.141-0.154,0.289-0.102c2.413-1.029,4.963-0.712,6.131,0.966c1.201,1.728,0.581,4.311-1.349,6.235l0.247,0.473
			c0,0,3.996,6.103,2.254,13.252l0.313,1.557c0,0,2.381,8.533-5.249,16.04c4.07,5.063,9.789,6.142,13.869,6.142
			c8.424,0,13.313-4.758,15.643-7.859l0.66,6.179h15.428l0.217-0.659C181.965,206.145,182,200.621,182,193.313z"/>
	</g>
	<g>
		<path fill="#BCD43A" d="M225.527,196.582c-1,0.953-2.267,1.773-3.742,1.883c-0.109,0.008-0.446,0.045-0.553,0.045
			c-1.201,0-2.428-0.966-3.021-1.848c-0.445-0.561-0.727-1.262-0.727-2.033c0-1.809,1.467-3.275,3.274-3.275
			s3.274,1.467,3.274,3.275c0,0.422-0.086,0.822-0.232,1.191c1.281-0.971,2.361-2.461,2.895-3.34l1.615-5.666
			c-0.877,0.735-1.92,1.312-3.11,1.397c-0.107,0.009-0.218,0.013-0.323,0.013c-1.1,0-2.179-0.271-3.165-1.014
			c-0.989-0.563-1.664-1.615-1.664-2.835c0-1.81,1.468-3.274,3.275-3.274s3.274,1.467,3.274,3.274c0,0.722-0.24,1.379-0.633,1.92
			c1.137-0.442,2.209-1.483,3.024-2.485c-2.491-2.883-6.255-5.131-11.388-6.844c-6.388-2.235-8.136-3.411-8.136-5.475
			c0-3.109,3.873-3.444,5.538-3.444c4.079,0,8.639,1.555,11.301,2.886l0.952,0.476l3.288-13.158l-0.611-0.307
			c-4.115-2.059-9.902-3.287-15.479-3.287c-13.417,0-22.786,7.648-22.786,18.583c-0.076,4.356,1.904,12.351,16.01,16.914
			c6.148,2.086,7.244,3.248,7.244,5.473c0,0.88,0,3.555-6.311,3.555c-4.73,0-10.947-1.996-13.992-3.844l-0.99-0.602l-3.418,13.67
			l0.582,0.316c4.658,2.516,11.15,3.959,17.818,3.959c5.016,0,9.385-0.804,12.979-2.3L225.527,196.582z"/>
		<path fill="#BCD43A" d="M230.396,185.736l-6.75,23.674c5.795-3.125,9.076-8.355,9.076-15.117
			C232.676,191.012,231.908,188.18,230.396,185.736z"/>
	</g>
	<path fill="#BCD43A" d="M257,156.633v8.869c0,1.859-0.521,4.032-2.316,5.554c-2.49,2.109-5.929,2.166-7.656,0.127
		c-1.729-2.041-1.229-5.405,1.261-7.514c2.146-1.819,4.713-2.108,6.713-0.847v-5.945l-11,1.586V211h18v-55.1L257,156.633z"/>
	<g>
		<polygon fill="#BCD43A" points="255,134.664 244,136.25 244,152.482 255,150.896 		"/>
		<polygon fill="#BCD43A" points="257,134.42 257,150.652 262,149.92 262,133.688 		"/>
	</g>
	<path fill="#BCD43A" d="M312.996,196.166c-2.619,1.141-5.645,1.693-9.247,1.693c-8.452,0-13.913-5.635-13.913-14.365
		c-0.053-4.189,1.307-7.903,3.83-10.456c2.439-2.471,5.812-3.776,9.752-3.776c3.627,0,6.662,0.531,9.021,1.578l0.963,0.43
		l3.017-14.205l-0.688-0.258c-3.589-1.346-8.479-2.148-13.084-2.148c-21.906,0-31.712,14.821-31.712,29.508
		c0,1.308,0.072,2.573,0.203,3.81c1.938-2.215,5.183-2.855,7.84-1.586c3.578,1.709,3.791,6.728,4.111,9.022s2.297,4.752,3.311,5.18
		c1.203,0.507,2.689,0.021,3.459-1.002c0.373-0.495,0.681-1.481,0.353-2.079c-0.717,0.223-1.678-0.138-2.356-0.959
		c-0.828-0.998-0.922-2.287-0.211-2.878c0.373-0.31,0.896-0.358,1.426-0.196c1.355,0.237,2.281,1.64,2.646,2.808
		c0.934,2.974-1.445,6.577-4.427,7.175c-2.495,0.5-5.116-0.949-6.412-3.046c-1.976-3.194-1.649-7.521-3.927-10.554
		c-1.505-2.008-5.105-1.461-4.922,1.4c0.031,0.504,0.179,0.862,0.402,1.159c0.053,0.074,0.118,0.14,0.183,0.205
		c0.725-0.276,1.733,0.084,2.438,0.938c0.828,0.998,0.922,2.285,0.211,2.875c-0.336,0.276-0.789,0.344-1.264,0.24
		c-0.164-0.019-0.426-0.062-0.729-0.146c4.223,10.093,13.931,16.148,27.062,16.148c6.119,0,12.004-1.002,15.359-2.619l0.573-0.274
		l-2.26-14.06L312.996,196.166z"/>
</g>
<linearGradient id="SVGID_2_" gradientUnits="userSpaceOnUse" x1="461.0938" y1="286.4971" x2="354.5947" y2="286.4971">
	<stop  offset="0" style="stop-color:#8A0B5F"/>
	<stop  offset="0.1856" style="stop-color:#860B5D"/>
	<stop  offset="0.3548" style="stop-color:#7B0A55"/>
	<stop  offset="0.5177" style="stop-color:#690848"/>
	<stop  offset="0.6767" style="stop-color:#4F0636"/>
	<stop  offset="0.8329" style="stop-color:#2D041F"/>
	<stop  offset="0.9849" style="stop-color:#040003"/>
	<stop  offset="1" style="stop-color:#000000"/>
</linearGradient>
<polyline fill="url(#SVGID_2_)" points="354.595,260.831 461.094,260.831 430.953,286.498 461.094,312.164 354.595,312.164 "/>
<polyline fill="#3A0B2F" points="391.347,283.497 354.595,260.831 354.595,283.497 "/>
<polygon fill="#8A0B5F" points="190.253,283.497 169.5,283.497 -30.415,283.497 -30.415,340.831 169.5,340.831 190.253,340.831 
	391.347,340.831 391.347,283.497 "/>
<g>
	<path fill="#FFFFFF" d="M8.769,300.858l12.393,17.362v-17.362h1.055V319.5h-1.622L8.492,302.546V319.5H7.437v-18.642H8.769z"/>
	<path fill="#FFFFFF" d="M30.996,307.028c1.775,0,3.285,0.624,4.529,1.872c1.243,1.248,1.865,2.76,1.865,4.535
		c0,1.758-0.622,3.263-1.865,4.516c-1.244,1.252-2.753,1.879-4.529,1.879c-1.758,0-3.263-0.627-4.515-1.879
		c-1.253-1.253-1.879-2.758-1.879-4.516c0-1.775,0.626-3.287,1.879-4.535C27.733,307.652,29.238,307.028,30.996,307.028z
		 M27.258,309.691c-1.033,1.037-1.549,2.285-1.549,3.744s0.516,2.703,1.549,3.73c1.033,1.029,2.279,1.543,3.738,1.543
		s2.705-0.514,3.738-1.543c1.032-1.027,1.549-2.271,1.549-3.73s-0.517-2.707-1.549-3.744c-1.033-1.037-2.279-1.556-3.738-1.556
		S28.291,308.654,27.258,309.691z"/>
	<path fill="#FFFFFF" d="M52.762,308.057L48.873,319.5h-0.659l-2.663-7.462l-2.663,7.462h-0.672l-3.876-11.443h1.2l3.032,9.4
		l2.689-7.449h0.593l2.689,7.449l3.019-9.4H52.762z"/>
	<path fill="#FFFFFF" d="M61.292,312.842c-0.026,0.186-0.04,0.383-0.04,0.594c0,1.459,0.516,2.703,1.549,3.73
		c1.033,1.029,2.279,1.543,3.738,1.543s2.707-0.519,3.744-1.556c0.176-0.176,0.343-0.36,0.501-0.554l1.121,0.396
		c-0.132,0.22-0.409,0.536-0.831,0.949c-1.248,1.257-2.76,1.886-4.535,1.886c-1.758,0-3.263-0.627-4.515-1.879
		c-1.253-1.253-1.879-2.758-1.879-4.516c0-1.775,0.626-3.287,1.879-4.535c1.252-1.248,2.757-1.872,4.515-1.872
		c1.775,0,3.287,0.624,4.535,1.872c1.099,1.107,1.648,2.422,1.648,3.941H61.292z M61.49,311.774h10.046
		c-0.246-0.8-0.664-1.494-1.252-2.083c-1.037-1.037-2.285-1.556-3.744-1.556s-2.707,0.519-3.744,1.556
		C62.18,310.315,61.745,311.01,61.49,311.774z"/>
	<path fill="#FFFFFF" d="M75.557,310.614v8.886h-1.055v-11.443h1.055v0.738c0.949-0.949,2.057-1.424,3.322-1.424
		c1.354,0,2.454,0.424,3.302,1.272c0.848,0.848,1.281,1.914,1.299,3.196v7.66h-1.042v-7.555c0-0.975-0.352-1.806-1.055-2.491
		s-1.538-1.028-2.505-1.028c-0.958,0-1.789,0.339-2.492,1.016C76.009,309.819,75.732,310.21,75.557,310.614z"/>
	<path fill="#FFFFFF" d="M90.138,308.979c-0.747,0.114-1.481,0.589-2.202,1.424s-1.081,1.679-1.081,2.531v6.565H85.8v-11.443h1.055
		v2.479c0.439-1.151,1.34-2.008,2.703-2.57L90.138,308.979z"/>
	<path fill="#FFFFFF" d="M97.481,307.028c1.775,0,3.285,0.624,4.529,1.872c1.243,1.248,1.865,2.76,1.865,4.535
		c0,1.758-0.622,3.263-1.865,4.516c-1.244,1.252-2.753,1.879-4.529,1.879c-1.758,0-3.263-0.627-4.515-1.879
		c-1.253-1.253-1.879-2.758-1.879-4.516c0-1.775,0.626-3.287,1.879-4.535C94.218,307.652,95.723,307.028,97.481,307.028z
		 M93.743,309.691c-1.033,1.037-1.549,2.285-1.549,3.744s0.516,2.703,1.549,3.73c1.033,1.029,2.279,1.543,3.738,1.543
		s2.705-0.514,3.738-1.543c1.032-1.027,1.549-2.271,1.549-3.73s-0.517-2.707-1.549-3.744c-1.033-1.037-2.279-1.556-3.738-1.556
		S94.776,308.654,93.743,309.691z"/>
	<path fill="#FFFFFF" d="M107.329,300.858V319.5h-1.055v-18.642H107.329z"/>
	<path fill="#FFFFFF" d="M111.284,300.858V319.5h-1.055v-18.642H111.284z"/>
	<path fill="#FFFFFF" d="M115.563,304.313c0.206,0.202,0.31,0.444,0.31,0.725c0,0.3-0.104,0.55-0.31,0.752
		c-0.207,0.202-0.451,0.303-0.732,0.303c-0.29,0-0.539-0.101-0.745-0.303c-0.207-0.202-0.31-0.452-0.31-0.752
		c0-0.28,0.103-0.522,0.31-0.725c0.206-0.202,0.455-0.303,0.745-0.303C115.112,304.01,115.355,304.11,115.563,304.313z
		 M115.345,308.057V319.5h-1.042v-11.443H115.345z"/>
	<path fill="#FFFFFF" d="M119.273,310.614v8.886h-1.055v-11.443h1.055v0.738c0.949-0.949,2.057-1.424,3.322-1.424
		c1.354,0,2.454,0.424,3.302,1.272c0.848,0.848,1.281,1.914,1.299,3.196v7.66h-1.042v-7.555c0-0.975-0.352-1.806-1.055-2.491
		s-1.538-1.028-2.505-1.028c-0.958,0-1.789,0.339-2.492,1.016C119.726,309.819,119.449,310.21,119.273,310.614z"/>
	<path fill="#FFFFFF" d="M140.75,317.232c-0.202,0.246-0.413,0.483-0.633,0.712c-1.248,1.257-2.76,1.886-4.535,1.886
		c-1.758,0-3.263-0.627-4.515-1.879c-1.253-1.253-1.879-2.758-1.879-4.516c0-1.775,0.626-3.285,1.879-4.528
		c1.252-1.244,2.757-1.866,4.515-1.866c1.775,0,3.287,0.62,4.535,1.859c0.237,0.246,0.457,0.506,0.659,0.777v-1.621h1.055v8.886
		c0,1.723-0.611,3.19-1.833,4.403c-1.248,1.257-2.755,1.885-4.522,1.885s-3.278-0.628-4.535-1.885
		c-0.255-0.255-0.483-0.519-0.686-0.791l1.107-0.408c0.114,0.14,0.242,0.276,0.382,0.408c1.028,1.037,2.272,1.556,3.731,1.556
		c1.45,0,2.694-0.519,3.731-1.556C140.147,319.614,140.662,318.507,140.75,317.232z M140.763,312.342
		c-0.202-1.002-0.681-1.886-1.437-2.65c-1.037-1.037-2.285-1.556-3.744-1.556s-2.705,0.519-3.738,1.556s-1.549,2.285-1.549,3.744
		s0.516,2.705,1.549,3.737c1.033,1.033,2.279,1.55,3.738,1.55s2.707-0.519,3.744-1.557c0.747-0.746,1.226-1.621,1.437-2.623V312.342
		z"/>
	<path fill="#FFFFFF" d="M151.982,309.111V319.5h-1.055v-10.389h-1.16v-1.055h1.16v-3.098c0.053-0.861,0.382-1.604,0.989-2.229
		c0.642-0.589,1.375-0.883,2.202-0.883c0.439,0,0.901,0.083,1.384,0.25l-0.33,0.936c-0.325-0.14-0.642-0.211-0.949-0.211
		c-0.545,0-1.063,0.221-1.556,0.66c-0.431,0.431-0.659,0.949-0.686,1.555v3.02h2.333v1.055H151.982z"/>
	<path fill="#FFFFFF" d="M161.87,307.028c1.775,0,3.285,0.624,4.529,1.872c1.243,1.248,1.865,2.76,1.865,4.535
		c0,1.758-0.622,3.263-1.865,4.516c-1.244,1.252-2.753,1.879-4.529,1.879c-1.758,0-3.263-0.627-4.515-1.879
		c-1.253-1.253-1.879-2.758-1.879-4.516c0-1.775,0.626-3.287,1.879-4.535C158.606,307.652,160.112,307.028,161.87,307.028z
		 M158.132,309.691c-1.033,1.037-1.549,2.285-1.549,3.744s0.516,2.703,1.549,3.73c1.033,1.029,2.279,1.543,3.738,1.543
		s2.705-0.514,3.738-1.543c1.032-1.027,1.549-2.271,1.549-3.73s-0.517-2.707-1.549-3.744c-1.033-1.037-2.279-1.556-3.738-1.556
		S159.165,308.654,158.132,309.691z"/>
	<path fill="#FFFFFF" d="M174.565,308.979c-0.747,0.114-1.481,0.589-2.202,1.424s-1.081,1.679-1.081,2.531v6.565h-1.055v-11.443
		h1.055v2.479c0.439-1.151,1.34-2.008,2.703-2.57L174.565,308.979z"/>
	<path fill="#FFFFFF" d="M187.788,309.178c-1.327-0.439-2.375-1.044-3.144-1.813c-0.77-0.769-1.153-1.702-1.153-2.802
		c0-1.071,0.384-1.994,1.153-2.768c0.769-0.773,1.702-1.16,2.802-1.16c1.08,0,2.012,0.387,2.795,1.16
		c0.422,0.413,0.716,0.874,0.883,1.384l-0.949,0.369c-0.141-0.378-0.369-0.726-0.686-1.042c-0.563-0.562-1.244-0.844-2.043-0.844
		c-0.801,0-1.483,0.282-2.051,0.844c-0.566,0.563-0.85,1.249-0.85,2.057c0,0.801,0.28,1.486,0.844,2.057
		c0.527,0.52,1.256,0.994,2.188,1.424c1.494,0.484,2.751,1.235,3.771,2.255c1.071,1.072,1.607,2.369,1.607,3.89
		c0,1.529-0.538,2.834-1.614,3.915c-1.077,1.081-2.376,1.622-3.896,1.622c-1.529,0-2.831-0.545-3.902-1.635
		c-0.871-0.861-1.39-1.863-1.556-3.006l0.988-0.356c0.105,1.011,0.536,1.89,1.292,2.637c0.879,0.879,1.938,1.318,3.178,1.318
		c1.238,0,2.298-0.439,3.177-1.318s1.318-1.938,1.318-3.177c0-1.23-0.439-2.285-1.318-3.164
		C189.85,310.25,188.904,309.635,187.788,309.178z"/>
	<path fill="#FFFFFF" d="M195.514,312.842c-0.025,0.186-0.039,0.383-0.039,0.594c0,1.459,0.517,2.703,1.549,3.73
		c1.033,1.029,2.278,1.543,3.738,1.543c1.458,0,2.706-0.519,3.744-1.556c0.175-0.176,0.342-0.36,0.5-0.554l1.121,0.396
		c-0.132,0.22-0.408,0.536-0.83,0.949c-1.249,1.257-2.761,1.886-4.535,1.886c-1.759,0-3.264-0.627-4.516-1.879
		c-1.253-1.253-1.879-2.758-1.879-4.516c0-1.775,0.626-3.287,1.879-4.535c1.252-1.248,2.757-1.872,4.516-1.872
		c1.774,0,3.286,0.624,4.535,1.872c1.098,1.107,1.647,2.422,1.647,3.941H195.514z M195.712,311.774h10.046
		c-0.246-0.8-0.664-1.494-1.252-2.083c-1.038-1.037-2.286-1.556-3.744-1.556c-1.46,0-2.708,0.519-3.744,1.556
		C196.401,310.315,195.967,311.01,195.712,311.774z"/>
	<path fill="#FFFFFF" d="M208.632,308.057h1.055v1.608c0.193-0.264,0.413-0.519,0.659-0.765c1.248-1.239,2.755-1.859,4.522-1.859
		c1.766,0,3.273,0.622,4.521,1.866c1.248,1.243,1.872,2.753,1.872,4.528c0,1.758-0.624,3.263-1.872,4.516
		c-1.248,1.252-2.756,1.879-4.521,1.879c-1.768,0-3.274-0.629-4.522-1.886c-0.246-0.246-0.466-0.501-0.659-0.765v6.684h-1.055
		V308.057z M209.687,312.342v2.188c0.193,1.002,0.672,1.882,1.438,2.637c1.036,1.038,2.284,1.557,3.744,1.557
		c1.458,0,2.704-0.517,3.737-1.55c1.032-1.032,1.549-2.278,1.549-3.737s-0.517-2.707-1.549-3.744
		c-1.033-1.037-2.279-1.556-3.737-1.556c-1.46,0-2.708,0.519-3.744,1.556C210.358,310.456,209.88,311.34,209.687,312.342z"/>
	<path fill="#FFFFFF" d="M224.809,308.057v-4.865h1.041v4.865h2.334v1.055h-2.334V319.5h-1.041v-10.389h-2.334v-1.055H224.809z"/>
	<path fill="#FFFFFF" d="M230.438,312.842c-0.025,0.186-0.039,0.383-0.039,0.594c0,1.459,0.517,2.703,1.549,3.73
		c1.033,1.029,2.278,1.543,3.738,1.543c1.458,0,2.706-0.519,3.744-1.556c0.175-0.176,0.342-0.36,0.5-0.554l1.121,0.396
		c-0.132,0.22-0.408,0.536-0.83,0.949c-1.249,1.257-2.761,1.886-4.535,1.886c-1.759,0-3.264-0.627-4.516-1.879
		c-1.253-1.253-1.879-2.758-1.879-4.516c0-1.775,0.626-3.287,1.879-4.535c1.252-1.248,2.757-1.872,4.516-1.872
		c1.774,0,3.286,0.624,4.535,1.872c1.098,1.107,1.647,2.422,1.647,3.941H230.438z M230.636,311.774h10.046
		c-0.246-0.8-0.664-1.494-1.252-2.083c-1.038-1.037-2.286-1.556-3.744-1.556c-1.46,0-2.708,0.519-3.744,1.556
		C231.325,310.315,230.891,311.01,230.636,311.774z"/>
	<path fill="#FFFFFF" d="M243.646,308.057h1.055v0.277c0.65-0.633,1.429-0.949,2.334-0.949c0.94,0,1.74,0.329,2.399,0.988
		c0.176,0.176,0.329,0.369,0.462,0.58c0.14-0.202,0.303-0.396,0.487-0.58c0.659-0.659,1.459-0.988,2.399-0.988
		s1.74,0.329,2.399,0.988c0.624,0.642,0.953,1.406,0.989,2.294v8.833h-1.055v-8.833h0.013c-0.026-0.606-0.255-1.12-0.686-1.542
		c-0.466-0.457-1.02-0.686-1.661-0.686c-0.65,0-1.206,0.229-1.668,0.686c-0.461,0.457-0.691,1.027-0.691,1.713v8.662h-1.042v-8.833
		h0.013c-0.035-0.606-0.268-1.12-0.698-1.542c-0.466-0.457-1.02-0.686-1.661-0.686s-1.191,0.229-1.648,0.686
		c-0.404,0.395-0.633,0.879-0.686,1.449v8.926h-1.055V308.057z"/>
	<path fill="#FFFFFF" d="M258.781,300.858h1.055v8.807c0.193-0.264,0.413-0.519,0.66-0.765c1.247-1.248,2.755-1.872,4.521-1.872
		s3.273,0.624,4.521,1.872s1.873,2.76,1.873,4.535c0,1.758-0.625,3.263-1.873,4.516c-1.248,1.252-2.755,1.879-4.521,1.879
		s-3.274-0.629-4.521-1.886c-0.247-0.246-0.467-0.501-0.66-0.765v2.32h-1.055V300.858z M259.836,312.342v2.188
		c0.193,0.994,0.673,1.868,1.438,2.624c1.037,1.037,2.285,1.556,3.744,1.556s2.705-0.514,3.737-1.543
		c1.033-1.027,1.55-2.271,1.55-3.73s-0.517-2.707-1.55-3.744c-1.032-1.037-2.278-1.556-3.737-1.556s-2.707,0.519-3.744,1.556
		C260.509,310.456,260.029,311.34,259.836,312.342z"/>
	<path fill="#FFFFFF" d="M274.22,312.842c-0.025,0.186-0.039,0.383-0.039,0.594c0,1.459,0.517,2.703,1.549,3.73
		c1.033,1.029,2.278,1.543,3.738,1.543c1.458,0,2.706-0.519,3.744-1.556c0.175-0.176,0.342-0.36,0.5-0.554l1.121,0.396
		c-0.132,0.22-0.408,0.536-0.83,0.949c-1.249,1.257-2.761,1.886-4.535,1.886c-1.759,0-3.264-0.627-4.516-1.879
		c-1.253-1.253-1.879-2.758-1.879-4.516c0-1.775,0.626-3.287,1.879-4.535c1.252-1.248,2.757-1.872,4.516-1.872
		c1.774,0,3.286,0.624,4.535,1.872c1.098,1.107,1.647,2.422,1.647,3.941H274.22z M274.418,311.774h10.046
		c-0.246-0.8-0.664-1.494-1.252-2.083c-1.038-1.037-2.286-1.556-3.744-1.556c-1.46,0-2.708,0.519-3.744,1.556
		C275.107,310.315,274.673,311.01,274.418,311.774z"/>
	<path fill="#FFFFFF" d="M291.478,308.979c-0.747,0.114-1.481,0.589-2.202,1.424s-1.08,1.679-1.08,2.531v6.565h-1.055v-11.443h1.055
		v2.479c0.438-1.151,1.34-2.008,2.702-2.57L291.478,308.979z"/>
	<path fill="#FFFFFF" d="M300.416,319.5c4.878-7.444,7.506-11.498,7.884-12.162c0.378-0.663,0.566-1.299,0.566-1.904
		c0-0.299-0.035-0.603-0.105-0.91c-0.22-0.967-0.742-1.709-1.568-2.229c-0.589-0.351-1.199-0.527-1.832-0.527
		c-0.282,0-0.563,0.031-0.844,0.093c-0.949,0.22-1.684,0.743-2.202,1.569c-0.29,0.457-0.466,0.909-0.527,1.357l-1.081-0.158
		c0.053-0.589,0.268-1.178,0.646-1.767c0.702-1.099,1.674-1.788,2.913-2.069c0.378-0.088,0.747-0.133,1.107-0.133
		c0.861,0,1.675,0.242,2.438,0.726c1.09,0.686,1.775,1.647,2.057,2.888c0.105,0.457,0.158,0.892,0.158,1.305
		c0,0.729-0.208,1.47-0.626,2.222c-0.417,0.751-2.718,4.3-6.901,10.646h7.527v1.055H300.416z"/>
	<path fill="#FFFFFF" d="M325.729,310.338c0,2.944-0.622,5.262-1.865,6.954c-1.244,1.691-2.749,2.538-4.516,2.538
		s-3.276-0.847-4.528-2.538c-1.253-1.692-1.879-4.01-1.879-6.954c0-2.936,0.626-5.25,1.879-6.941
		c1.252-1.692,2.762-2.538,4.528-2.538s3.271,0.846,4.516,2.538C325.106,305.088,325.729,307.402,325.729,310.338z M324.621,310.338
		c0-2.637-0.517-4.689-1.549-6.157c-1.033-1.468-2.279-2.202-3.738-2.202s-2.704,0.734-3.737,2.202
		c-1.032,1.468-1.549,3.521-1.549,6.157c0,2.646,0.517,4.702,1.549,6.17c1.033,1.468,2.278,2.201,3.737,2.201
		s2.705-0.733,3.738-2.201C324.104,315.04,324.621,312.983,324.621,310.338z"/>
	<path fill="#FFFFFF" d="M332.966,318.445v-15.504l-1.938,1.266l-0.817-0.594l3.797-2.755v17.587h4.048v1.055h-9.229v-1.055H332.966
		z"/>
	<path fill="#FFFFFF" d="M344.41,310.443c0.904-0.703,1.951-1.055,3.137-1.055c1.433,0,2.652,0.505,3.659,1.516
		c1.006,1.011,1.509,2.237,1.509,3.678c0,1.424-0.503,2.644-1.509,3.659c-1.007,1.015-2.227,1.522-3.659,1.522
		c-1.424,0-2.643-0.508-3.658-1.522c-1.015-1.016-1.522-2.235-1.522-3.659c0.079-2.004,0.652-4.095,1.721-6.275
		c1.067-2.179,2.538-4.662,4.409-7.448h1.398C347.723,304.031,345.895,307.227,344.41,310.443z M344.667,311.702
		c-0.796,0.795-1.193,1.756-1.193,2.88c0,1.126,0.397,2.081,1.193,2.868c0.795,0.786,1.755,1.18,2.88,1.18
		c1.116,0,2.072-0.394,2.868-1.18c0.795-0.787,1.192-1.742,1.192-2.868c0-1.124-0.397-2.085-1.192-2.88
		c-0.796-0.796-1.752-1.193-2.868-1.193C346.422,310.509,345.462,310.906,344.667,311.702z"/>
</g>
</svg>
