<?xml version="1.0" encoding="utf-8"?>
<!-- Generator: Adobe Illustrator 16.0.0, SVG Export Plug-In . SVG Version: 6.00 Build 0)  -->
<!DOCTYPE svg PUBLIC "-//W3C//DTD SVG 1.1//EN" "http://www.w3.org/Graphics/SVG/1.1/DTD/svg11.dtd">
<svg version="1.1" id="Layer_1" xmlns="http://www.w3.org/2000/svg" xmlns:xlink="http://www.w3.org/1999/xlink" x="0px" y="0px"
	 width="358px" height="358px" viewBox="0 0 358 358" enable-background="new 0 0 358 358" xml:space="preserve">
<circle fill="#CD1488" cx="179.5" cy="178.5" r="174.5"/>
<g>
	<g>
		<path fill="#FFFFFF" d="M48.824,147.123l0.998,0.888c-1.283,1.168-2.697,1.752-4.24,1.752c-1.659,0-3.061-0.572-4.205-1.716
			c-1.144-1.144-1.715-2.516-1.715-4.117c0-1.585,0.571-2.954,1.715-4.105c1.145-1.152,2.546-1.728,4.205-1.728
			c1.543,0,2.957,0.586,4.24,1.76l-0.998,0.888c-1.047-0.925-2.127-1.387-3.242-1.387c-1.215,0-2.266,0.442-3.15,1.328
			s-1.328,1.967-1.328,3.246c0,1.289,0.443,2.375,1.328,3.257c0.885,0.883,1.936,1.324,3.15,1.324
			C46.697,148.51,47.777,148.048,48.824,147.123z"/>
		<path fill="#FFFFFF" d="M52.502,144.555v5.081h-1.436V138.23h1.436v5.081h4.684v-5.081h1.435v11.405h-1.435v-5.081H52.502z"/>
		<path fill="#FFFFFF" d="M66.665,138.23H68.1v8.068c-0.121,0.893-0.505,1.662-1.149,2.307c-0.745,0.75-1.667,1.125-2.767,1.125
			c-1.109,0-2.041-0.379-2.797-1.138c-0.756-0.758-1.134-1.658-1.134-2.699v-7.664h1.435v7.664c0,0.729,0.248,1.344,0.745,1.843
			c0.497,0.5,1.081,0.749,1.751,0.749c0.666,0,1.246-0.25,1.74-0.749c0.494-0.499,0.741-1.113,0.741-1.843V138.23z"/>
		<path fill="#FFFFFF" d="M72.648,145.903H71.31v3.733h-1.435V138.23h3.266c0.951,0.127,1.746,0.513,2.385,1.157
			c0.746,0.745,1.118,1.635,1.118,2.671c0,1.041-0.384,1.945-1.149,2.711c-0.507,0.512-0.956,0.816-1.348,0.911l2.561,3.955h-1.656
			L72.648,145.903z M71.31,139.483v5.167h1.411c0.666,0,1.246-0.247,1.743-0.741c0.497-0.494,0.745-1.111,0.745-1.851
			c0-0.734-0.248-1.347-0.745-1.839c-0.497-0.491-1.077-0.737-1.743-0.737H71.31z"/>
		<path fill="#FFFFFF" d="M86.986,147.123l0.999,0.888c-1.284,1.168-2.698,1.752-4.24,1.752c-1.659,0-3.062-0.572-4.205-1.716
			c-1.144-1.144-1.716-2.516-1.716-4.117c0-1.585,0.572-2.954,1.716-4.105s2.546-1.728,4.205-1.728c1.542,0,2.956,0.586,4.24,1.76
			l-0.999,0.888c-1.046-0.925-2.127-1.387-3.241-1.387c-1.216,0-2.266,0.442-3.151,1.328c-0.885,0.885-1.327,1.967-1.327,3.246
			c0,1.289,0.442,2.375,1.327,3.257c0.886,0.883,1.936,1.324,3.151,1.324C84.859,148.51,85.94,148.048,86.986,147.123z"/>
		<path fill="#FFFFFF" d="M90.664,144.555v5.081H89.23V138.23h1.434v5.081h4.685v-5.081h1.435v11.405h-1.435v-5.081H90.664z"/>
		<path fill="#FFFFFF" d="M101.935,139.475v10.161h-1.427v-10.161h-2.727v-1.244h6.872v1.244H101.935z"/>
		<path fill="#FFFFFF" d="M114.961,139.8c1.148,1.152,1.724,2.523,1.724,4.113c0,1.601-0.575,2.977-1.724,4.125
			c-1.149,1.149-2.554,1.724-4.213,1.724c-1.654,0-3.055-0.575-4.205-1.724c-1.148-1.149-1.724-2.524-1.724-4.125
			c0-1.59,0.575-2.961,1.724-4.113c1.15-1.152,2.551-1.728,4.205-1.728C112.407,138.072,113.812,138.648,114.961,139.8z
			 M110.748,139.324c-1.215,0-2.267,0.445-3.154,1.335c-0.888,0.891-1.332,1.975-1.332,3.253c0,1.29,0.444,2.378,1.332,3.266
			s1.939,1.332,3.154,1.332c1.221,0,2.275-0.444,3.162-1.332c0.889-0.888,1.332-1.976,1.332-3.266c0-1.278-0.443-2.363-1.332-3.253
			C113.023,139.77,111.969,139.324,110.748,139.324z"/>
		<path fill="#FFFFFF" d="M124.254,141.084l2.307,5.952l2.361-8.806h1.451l-3.06,11.405h-1.253l-2.282-6.008l-2.29,6.008h-1.252
			l-3.061-11.405h1.459l2.369,8.806l2.291-5.952H124.254z"/>
		<path fill="#FFFFFF" d="M132.655,138.23l6.499,9.115v-9.115h1.435v11.405h-1.585l-6.333-8.885v8.885h-1.435V138.23H132.655z"/>
		<path fill="#FFFFFF" d="M149.529,143.636c-0.819-0.27-1.477-0.652-1.974-1.149s-0.745-1.097-0.745-1.799
			c0-0.687,0.258-1.291,0.773-1.811c0.515-0.521,1.155-0.781,1.922-0.781c0.755,0,1.402,0.267,1.941,0.801
			c0.279,0.274,0.499,0.66,0.658,1.157l-1.285,0.5c-0.158-0.428-0.301-0.706-0.428-0.832c-0.258-0.264-0.555-0.396-0.887-0.396
			c-0.328,0-0.62,0.128-0.877,0.384c-0.256,0.256-0.384,0.583-0.384,0.979c0,0.391,0.132,0.724,0.396,0.999
			c0.274,0.264,0.649,0.507,1.126,0.729c0.908,0.296,1.669,0.75,2.281,1.363c0.703,0.697,1.055,1.521,1.055,2.473
			s-0.348,1.774-1.042,2.469s-1.547,1.042-2.556,1.042c-1.016,0-1.873-0.357-2.576-1.07c-0.55-0.544-0.889-1.25-1.015-2.116
			l1.379-0.499c0.085,0.83,0.319,1.435,0.706,1.815c0.422,0.423,0.924,0.634,1.506,0.634c0.586,0,1.098-0.218,1.533-0.654
			c0.436-0.436,0.654-0.976,0.654-1.621s-0.215-1.181-0.643-1.609C150.617,144.214,150.11,143.879,149.529,143.636z"/>
		<path fill="#FFFFFF" d="M163.288,147.123l0.999,0.888c-1.284,1.168-2.697,1.752-4.24,1.752c-1.66,0-3.061-0.572-4.205-1.716
			c-1.145-1.144-1.716-2.516-1.716-4.117c0-1.585,0.571-2.954,1.716-4.105s2.545-1.728,4.205-1.728c1.543,0,2.956,0.586,4.24,1.76
			l-0.999,0.888c-1.046-0.925-2.126-1.387-3.241-1.387c-1.216,0-2.266,0.442-3.15,1.328s-1.328,1.967-1.328,3.246
			c0,1.289,0.443,2.375,1.328,3.257c0.885,0.883,1.935,1.324,3.15,1.324C161.162,148.51,162.242,148.048,163.288,147.123z"/>
		<path fill="#FFFFFF" d="M166.966,144.555v5.081h-1.435V138.23h1.435v5.081h4.685v-5.081h1.434v11.405h-1.434v-5.081H166.966z"/>
		<path fill="#FFFFFF" d="M184.462,139.8c1.149,1.152,1.724,2.523,1.724,4.113c0,1.601-0.574,2.977-1.724,4.125
			c-1.149,1.149-2.554,1.724-4.212,1.724c-1.654,0-3.056-0.575-4.205-1.724c-1.149-1.149-1.725-2.524-1.725-4.125
			c0-1.59,0.575-2.961,1.725-4.113s2.551-1.728,4.205-1.728C181.908,138.072,183.313,138.648,184.462,139.8z M180.25,139.324
			c-1.216,0-2.268,0.445-3.154,1.335c-0.889,0.891-1.332,1.975-1.332,3.253c0,1.29,0.443,2.378,1.332,3.266
			c0.887,0.888,1.938,1.332,3.154,1.332c1.221,0,2.274-0.444,3.162-1.332s1.332-1.976,1.332-3.266c0-1.278-0.444-2.363-1.332-3.253
			C182.524,139.77,181.471,139.324,180.25,139.324z"/>
		<path fill="#FFFFFF" d="M197.31,139.8c1.149,1.152,1.724,2.523,1.724,4.113c0,1.601-0.574,2.977-1.724,4.125
			c-1.149,1.149-2.554,1.724-4.212,1.724c-1.654,0-3.056-0.575-4.205-1.724c-1.149-1.149-1.725-2.524-1.725-4.125
			c0-1.59,0.575-2.961,1.725-4.113s2.551-1.728,4.205-1.728C194.756,138.072,196.16,138.648,197.31,139.8z M193.098,139.324
			c-1.216,0-2.268,0.445-3.154,1.335c-0.889,0.891-1.332,1.975-1.332,3.253c0,1.29,0.443,2.378,1.332,3.266
			c0.887,0.888,1.938,1.332,3.154,1.332c1.221,0,2.274-0.444,3.162-1.332s1.332-1.976,1.332-3.266c0-1.278-0.444-2.363-1.332-3.253
			C195.372,139.77,194.318,139.324,193.098,139.324z"/>
		<path fill="#FFFFFF" d="M200.413,149.636V138.23h1.435v10.161h4.098v1.244H200.413z"/>
		<path fill="#FFFFFF" d="M221.016,139.8c1.149,1.152,1.725,2.523,1.725,4.113c0,1.601-0.575,2.977-1.725,4.125
			c-1.148,1.149-2.553,1.724-4.213,1.724c-1.653,0-3.055-0.575-4.204-1.724c-1.149-1.149-1.724-2.524-1.724-4.125
			c0-1.59,0.574-2.961,1.724-4.113s2.551-1.728,4.204-1.728C218.463,138.072,219.867,138.648,221.016,139.8z M216.803,139.324
			c-1.215,0-2.266,0.445-3.154,1.335c-0.887,0.891-1.331,1.975-1.331,3.253c0,1.29,0.444,2.378,1.331,3.266
			c0.889,0.888,1.939,1.332,3.154,1.332c1.221,0,2.275-0.444,3.163-1.332s1.331-1.976,1.331-3.266c0-1.278-0.443-2.363-1.331-3.253
			C219.078,139.77,218.023,139.324,216.803,139.324z"/>
		<path fill="#FFFFFF" d="M229.651,138.23v1.244h-4.098v3.836h4.098v1.244h-4.098v5.081h-1.435V138.23H229.651z"/>
	</g>
	<path fill="#BCD43A" d="M101.289,154.658c-3.621,0-6.812,0.904-9.966,2.774c-2.237,1.392-4.196,3.294-6.06,5.792
		c-2.597-5.391-7.753-8.566-14.082-8.566c-7.541,0-12.166,3.725-14.906,7.395l-0.512-6.152l-15.002,5.125l0.432,2.584
		c0.214,5.028,0.807,5.965,0.807,10.309V211h16v-31.683c0-1.188,0.171-2.714,0.679-4.016c0.914-2.601,3.265-5.379,6.685-5.379
		c5.639,0,6.637,6.576,6.637,10.497V211h3.172c-0.383,0-1.006-1.938-0.855-3.344c0.213-1.994,2.42-3.311,3.631-3.025
		c1.21,0.284,3.559,0.48,3.559,0.48l-7.403-8.089c0,0,2.991-2.62,3.702-3.546c0.711-0.925,1.566-2.77,1.424-3.908
		s-0.996-2.417-1.709-3.059c-0.712-0.64-1.067-1.352-0.783-1.778c0.285-0.428,1.281-0.854,2.35,0.214
		c1.068,1.068,5.269,5.91,5.269,5.91s0.854,1.211,0.926,2.064c0.07,0.855-2.065,3.347-2.065,3.347l-2.705,3.702l5.695,7.831
		c0,0,0.143,0.569-0.07,0.854c-0.214,0.285-1.282-0.641-2.99-0.641c-1.709,0-3.133,0.283-3.561,0.994
		c-0.281,0.47-0.432,1.992-0.262,1.992H89v-31.903c0-1.233,0.096-2.831,0.367-3.901c0.563-1.584,2.087-5.272,6.289-5.272
		c4.369,0,6.344,3.864,6.344,11.488V211h17v-32.123C119,163.713,112.498,154.658,101.289,154.658z"/>
	<g>
		<path fill="#BCD43A" d="M140.742,190.668c-1.162,3.117-3.512,6.352-7.818,9.307c0.329,1.026,0.705,1.967,1.117,2.838
			C137.547,200.813,141.654,197.059,140.742,190.668z"/>
		<path fill="#BCD43A" d="M137.5,176.158c-2.144,1.492-4.5,1.777-6.5,0.904v11.291c0,2.27,0.314,4.318,0.566,6.193
			c2.361-1.008,5.557-2.703,6.81-5.043c1.761-3.287,2.501-8.314-0.144-13.889C138.014,175.805,137.744,175.988,137.5,176.158z"/>
		<path fill="#BCD43A" d="M182,193.313V156h-18v32.795c0,1.311-0.22,2.424-0.607,3.352c-0.862,2.432-3.297,5.271-7.169,5.271
			c-4.825,0-7.224-3.83-7.224-11.709V156h-18v13.857c1-0.372,0.936-0.724,1.39-1.04c0.399-0.278,0.899-0.503,1.317-0.698
			c0.004-0.132,0.141-0.154,0.289-0.102c2.413-1.029,4.963-0.712,6.131,0.966c1.201,1.728,0.581,4.311-1.349,6.235l0.247,0.473
			c0,0,3.996,6.103,2.254,13.252l0.313,1.557c0,0,2.381,8.533-5.249,16.04c4.07,5.063,9.789,6.142,13.869,6.142
			c8.424,0,13.313-4.758,15.643-7.86l0.66,6.179h15.428l0.217-0.659C181.965,206.144,182,200.621,182,193.313z"/>
	</g>
	<g>
		<path fill="#BCD43A" d="M225.527,196.582c-0.999,0.953-2.266,1.773-3.742,1.883c-0.109,0.008-0.446,0.044-0.553,0.044
			c-1.201,0-2.428-0.965-3.021-1.847c-0.446-0.561-0.726-1.261-0.726-2.033c0-1.809,1.466-3.275,3.274-3.275
			c1.808,0,3.274,1.467,3.274,3.275c0,0.422-0.086,0.822-0.232,1.191c1.281-0.971,2.361-2.46,2.895-3.34l1.615-5.666
			c-0.877,0.736-1.921,1.312-3.111,1.398c-0.107,0.008-0.217,0.013-0.323,0.013c-1.099,0-2.179-0.271-3.165-1.014
			c-0.989-0.563-1.664-1.616-1.664-2.835c0-1.809,1.467-3.274,3.275-3.274c1.808,0,3.274,1.466,3.274,3.274
			c0,0.721-0.239,1.379-0.632,1.92c1.137-0.442,2.209-1.484,3.024-2.486c-2.491-2.883-6.255-5.131-11.388-6.843
			c-6.387-2.235-8.135-3.411-8.135-5.475c0-3.109,3.873-3.444,5.538-3.444c4.079,0,8.638,1.555,11.3,2.886l0.953,0.476l3.288-13.158
			l-0.612-0.307c-4.115-2.059-9.902-3.287-15.479-3.287c-13.417,0-22.786,7.648-22.786,18.583
			c-0.076,4.356,1.904,12.351,16.009,16.913c6.149,2.087,7.245,3.249,7.245,5.473c0,0.88,0,3.555-6.31,3.555
			c-4.731,0-10.948-1.996-13.993-3.844l-0.99-0.602l-3.418,13.671l0.582,0.315c4.658,2.516,11.151,3.959,17.819,3.959
			c5.015,0,9.384-0.803,12.979-2.299L225.527,196.582z"/>
		<path fill="#BCD43A" d="M230.397,185.737l-6.75,23.673c5.795-3.125,9.075-8.356,9.075-15.117
			C232.676,191.012,231.908,188.18,230.397,185.737z"/>
	</g>
	<path fill="#BCD43A" d="M257,156.633v8.869c0,1.859-0.521,4.032-2.317,5.554c-2.489,2.109-5.928,2.166-7.656,0.127
		c-1.728-2.041-1.229-5.405,1.261-7.514c2.146-1.819,4.713-2.108,6.713-0.847v-5.945l-11,1.586V211h18v-55.1L257,156.633z"/>
	<g>
		<polygon fill="#BCD43A" points="255,134.664 244,136.25 244,152.482 255,150.896 		"/>
		<polygon fill="#BCD43A" points="257,134.42 257,150.652 262,149.92 262,133.688 		"/>
	</g>
	<path fill="#BCD43A" d="M312.996,196.166c-2.619,1.141-5.644,1.693-9.247,1.693c-8.452,0-13.913-5.634-13.913-14.365
		c-0.053-4.189,1.307-7.903,3.83-10.456c2.439-2.471,5.812-3.776,9.752-3.776c3.627,0,6.662,0.531,9.021,1.578l0.963,0.43
		l3.017-14.205l-0.688-0.258c-3.588-1.346-8.479-2.148-13.084-2.148c-21.906,0-31.712,14.821-31.712,29.508
		c0,1.307,0.073,2.574,0.203,3.81c1.939-2.215,5.183-2.856,7.841-1.587c3.578,1.709,3.791,6.728,4.111,9.023s2.297,4.752,3.311,5.18
		c1.203,0.506,2.689,0.02,3.459-1.002c0.373-0.495,0.68-1.482,0.352-2.079c-0.717,0.222-1.678-0.138-2.357-0.96
		c-0.828-0.998-0.922-2.287-0.211-2.877c0.373-0.309,0.896-0.359,1.426-0.197c1.356,0.238,2.281,1.64,2.647,2.808
		c0.933,2.974-1.445,6.578-4.427,7.175c-2.495,0.5-5.116-0.95-6.412-3.046c-1.975-3.194-1.65-7.52-3.927-10.554
		c-1.505-2.008-5.106-1.461-4.922,1.401c0.032,0.504,0.179,0.862,0.402,1.159c0.054,0.074,0.119,0.139,0.183,0.205
		c0.725-0.276,1.733,0.084,2.439,0.938c0.828,0.998,0.922,2.286,0.211,2.876c-0.336,0.276-0.79,0.344-1.264,0.239
		c-0.164-0.018-0.426-0.061-0.729-0.145c4.223,10.092,13.931,16.148,27.062,16.148c6.119,0,12.004-1.003,15.359-2.619l0.574-0.275
		l-2.26-14.06L312.996,196.166z"/>
</g>
</svg>
