<?xml version="1.0" encoding="utf-8"?>
<!-- Generator: Adobe Illustrator 16.0.0, SVG Export Plug-In . SVG Version: 6.00 Build 0)  -->
<!DOCTYPE svg PUBLIC "-//W3C//DTD SVG 1.1//EN" "http://www.w3.org/Graphics/SVG/1.1/DTD/svg11.dtd">
<svg version="1.1" id="Layer_1" xmlns="http://www.w3.org/2000/svg" xmlns:xlink="http://www.w3.org/1999/xlink" x="0px" y="0px"
	 width="291px" height="258px" viewBox="0 0 291 258" enable-background="new 0 0 291 258" xml:space="preserve">
<g>
	<path fill="#FFFFFF" d="M267.344,128.779l-9.01-17.161c-0.17-0.375-0.476-0.525-0.799-0.596c-0.644-0.14-1.477,0.185-1.635,0.91
		c-0.052,0.242-0.04,0.582,0.148,0.876l2.084,4c1.019,1.911,1.224,4.066,0.802,6c-0.544,2.5-2.038,4.707-4.438,6.042
		c-3.563,2.01-8.154,3.712-8.751,6.453c-0.141,0.645-0.041,1.342,0.367,2.19l7.864,15.053c-2.986-2.17-6.386-4.01-9.047-4.589
		c-2.336-0.509-3.471,0.429-3.963,2.686c-0.947,4.352,1.192,12.753,3.872,17.898c0.126,0.193,0.288,0.228,0.449,0.263
		c0.482,0.105,1.007-0.37,0.711-0.94c-1.021-1.91-1.22-5.248-0.606-8.067c0.721-3.306,2.144-5.19,5.446-4.471
		c2.74,0.597,6.07,2.755,7.152,4.766c0.173,0.375,0.538,0.624,0.862,0.694c0.644,0.141,1.412-0.286,1.569-1.009
		c0.054-0.243,0.045-0.583-0.146-0.876l-5.032-9.455c-1.02-1.91-1.145-4.045-0.723-5.983c0.544-2.499,2.037-4.706,4.44-6.04
		c3.56-2.011,8.151-3.713,8.748-6.453C267.852,130.324,267.752,129.627,267.344,128.779z"/>
	<path fill="#FFFFFF" d="M172.31,89.628c-0.576,1.154-3.464,5.197-4.703,5.197c-2.391,0-1.979-2.558-2.801-4.867
		c-0.66-1.98-2.558-3.219-4.622-3.219c-3.299,0-6.02,2.639-6.02,5.941c0,3.795,3.38,6.515,7.174,6.515
		c2.97,0,5.777-0.824,8.578-1.814l-3.791,12.459c-0.413,1.401-3.628,5.609-4.951,5.609c-2.392,0-1.979-2.558-2.805-4.868
		c-0.661-1.979-2.64-3.219-4.703-3.219c-3.299,0-5.939,2.644-5.939,5.942c0,3.794,3.384,6.518,7.179,6.518
		c2.969,0,5.938-0.909,8.742-1.898l-8.332,26.976c0.66,0.576,1.487,0.825,2.31,0.825c0.828,0,1.569-0.249,2.229-0.825l14.765-55.272
		C174.209,88.638,172.808,88.638,172.31,89.628z"/>
	<path fill="#FFFFFF" d="M112.783,189.242c-0.652-2.424-1.857-4.628-3.461-6.519c0.884-2.562,1.188-5.241,0.435-8.045
		c-0.446-1.658-1.721-5.62-3.632-5.105c-0.827,0.222-1.467,1.146-1.003,2.115c0.854,1.137,1.594,2.372,1.954,3.711
		c1.818,6.756-5.067,13.938-10.47,18.741l-5.489-20.4c1.564,0.642,3.458,0.648,5.272,0.16c2.611-0.703,4.902-2.344,6.839-4.298
		c2.515-2.593,5.245-6.677,4.011-11.265c-1.063-3.951-4.938-4.889-8.508-3.929c-2.613,0.703-4.905,2.345-6.838,4.299
		c-2.519,2.593-5.246,6.673-4.011,11.262c0.046,0.172,0.104,0.331,0.161,0.492l0.009,0.142l13.855,51.497
		c0.095,0.354,0.459,0.561,0.809,0.466l0.796-0.214c0.354-0.095,0.562-0.455,0.467-0.809
		C100.876,210.009,115.887,200.777,112.783,189.242z M108.016,185.738c0.951,1.248,1.683,2.693,2.094,4.223
		c1.749,6.5-4.657,13.69-9.645,18.519l-0.343-1.275C98.013,199.366,104.443,192.782,108.016,185.738z"/>
	<path fill="#FFFFFF" d="M60.826,71.555c-0.072-0.164-0.154-0.312-0.235-0.462l-0.03-0.138L39.002,22.178
		c-0.147-0.334-0.535-0.485-0.869-0.337l-0.755,0.333c-0.334,0.147-0.485,0.536-0.337,0.87l20.011,45.278
		c-1.644-0.395-3.516-0.113-5.234,0.647c-2.476,1.094-4.49,3.066-6.104,5.296c-2.089,2.943-4.16,7.395-2.239,11.741
		c1.654,3.742,5.624,4.078,9.006,2.583c2.474-1.093,4.487-3.066,6.103-5.293C60.674,80.354,62.747,75.901,60.826,71.555z"/>
	<path fill="#FFFFFF" d="M168.039,39.226c-1.802-1.447-4.365-1.73-5.688-0.083c-1.445,1.801-0.749,3.883,0.587,4.956
		c1.029,0.826,2.421,1.098,3.752,0.391c1.224,1.323,1.498,3.403,0.217,4.999c-1.28,1.594-3.672,1.623-5.371,0.258
		c-3.292-2.644-3.469-7.274-4.069-11.478c-0.601-4.208-1.417-8.671-4.762-11.356c-3.809-3.059-9.291-2.554-12.35,1.254
		c-2.893,3.602-3.035,8.734,0.413,11.503c1.8,1.445,4.364,1.729,5.687,0.083c1.446-1.801,0.752-3.886-0.588-4.961
		c-1.028-0.826-2.42-1.092-3.752-0.386c-1.223-1.323-1.496-3.405-0.216-4.999c1.281-1.596,3.672-1.624,5.369-0.26
		c3.295,2.646,3.471,7.277,4.071,11.48c0.601,4.207,1.417,8.671,4.762,11.356c3.808,3.058,9.291,2.554,12.35-1.254
		C171.343,47.126,171.486,41.994,168.039,39.226z"/>
</g>
</svg>
